<svg xmlns="http://www.w3.org/2000/svg" viewBox="0 0 1040 1596" width="1040" font-family="sans-serif" font-size="13" fill="#fff">
<rect width="100%" height="100%" fill="#000"/>
<g transform="translate(0,0)">
<text x="40" y="26" font-size="18" font-weight="bold">Categories</text>
<g stroke="#fff" stroke-width="0.6" stroke-linejoin="round">
<path d="M441.3,548.6 L441.4,528.9 L453.0,529.0 L453.0,509.1 L479.8,517.4 L490.5,519.5 L502.8,530.6 L491.8,538.9 L491.8,585.7 L479.6,576.5 L441.3,548.6Z" fill="#e6ab02"><title>Appling - East Georgia</title></path>
<path d="M382.7,630.1 L372.9,630.1 L374.6,616.0 L360.7,593.5 L399.3,596.2 L402.7,602.2 L427.3,602.2 L427.2,616.0 L418.1,615.5 L421.7,630.1 L382.7,630.1Z" fill="#e6ab02"><title>Atkinson - East Georgia</title></path>
<path d="M441.3,548.6 L479.6,576.5 L464.3,592.0 L454.8,594.0 L444.7,586.1 L431.4,586.0 L427.5,554.5 L441.3,554.5 L441.3,548.6Z" fill="#e6ab02"><title>Bacon - East Georgia</title></path>
<path d="M165.9,591.4 L192.9,591.0 L230.5,590.5 L222.8,603.5 L204.6,611.3 L196.3,627.7 L186.0,634.5 L182.8,646.4 L178.3,646.3 L179.0,618.9 L165.4,618.5 L165.9,591.4Z" fill="#a6761d"><title>Baker - South Georgia</title></path>
<path d="M358.2,348.9 L332.5,360.7 L329.5,349.6 L325.0,331.9 L323.2,320.7 L343.3,320.4 L366.3,325.9 L365.9,341.6 L372.2,336.8 L369.4,357.6 L358.2,348.9Z" fill="#66a61e"><title>Baldwin - Central Georgia</title></path>
<path d="M332.8,160.1 L330.5,162.9 L326.9,163.7 L326.6,164.2 L316.5,154.2 L298.3,149.1 L291.9,138.0 L298.9,128.0 L309.1,118.7 L319.2,120.3 L325.2,122.4 L327.2,123.5 L327.7,144.5 L332.8,160.1Z" fill="#7570b3"><title>Banks - Northeast Georgia</title></path>
<path d="M294.8,209.2 L279.6,210.7 L275.0,205.6 L265.9,194.0 L272.6,175.0 L279.1,184.4 L305.7,189.8 L309.1,200.0 L294.8,209.2Z" fill="#7570b3"><title>Barrow - Northeast Georgia</title></path>
<path d="M118.0,134.0 L136.6,133.4 L163.9,130.9 L163.1,182.7 L161.3,182.6 L161.2,182.6 L161.0,182.6 L160.9,182.6 L160.0,182.6 L159.8,182.6 L159.4,182.6 L154.9,182.5 L154.8,182.5 L154.0,182.5 L152.9,182.4 L128.8,182.0 L112.6,179.8 L118.0,134.0Z" fill="#1b9e77"><title>Bartow - North Georgia</title></path>
<path d="M355.9,527.4 L379.6,537.8 L379.2,554.4 L356.0,553.6 L355.9,557.8 L336.6,553.3 L336.7,541.5 L320.0,541.3 L316.5,527.5 L355.9,527.4Z" fill="#66a61e"><title>Ben Hill - Central Georgia</title></path>
<path d="M353.2,654.6 L343.4,654.4 L342.5,654.4 L340.6,654.3 L339.2,632.7 L322.5,604.3 L334.9,584.9 L360.0,585.5 L360.1,585.5 L360.0,586.0 L359.4,587.0 L359.4,587.9 L360.1,588.2 L361.0,590.3 L360.9,591.0 L361.3,592.0 L360.9,592.4 L360.7,593.5 L374.6,616.0 L372.9,630.1 L374.0,635.8 L357.5,635.8 L353.2,654.6Z" fill="#a6761d"><title>Berrien - South Georgia</title></path>
<path d="M286.5,356.6 L293.3,366.6 L312.2,373.3 L313.6,380.1 L301.2,401.2 L287.8,396.9 L271.7,389.2 L262.9,372.8 L286.5,356.6Z" fill="#66a61e"><title>Bibb - Central Georgia</title></path>
<path d="M349.5,413.6 L360.9,438.5 L356.5,434.0 L339.3,451.0 L333.9,461.8 L314.2,441.8 L316.2,438.3 L314.2,434.0 L349.5,413.6Z" fill="#66a61e"><title>Bleckley - Central Georgia</title></path>
<path d="M517.5,651.1 L501.2,646.8 L492.0,656.9 L482.0,645.4 L482.0,632.1 L472.1,623.8 L483.8,626.4 L496.1,615.7 L508.2,615.7 L503.8,600.7 L519.1,605.0 L535.0,602.3 L544.0,607.5 L539.5,632.3 L517.5,651.1Z" fill="#e6ab02"><title>Brantley - East Georgia</title></path>
<path d="M304.2,646.4 L317.1,653.6 L316.9,653.7 L317.3,653.7 L317.4,654.1 L317.5,653.9 L317.7,654.1 L318.1,654.1 L317.6,654.4 L317.7,654.8 L318.1,655.2 L318.4,655.7 L318.3,656.4 L318.6,656.8 L318.7,657.6 L319.0,657.6 L319.1,658.1 L319.4,658.4 L332.3,683.8 L320.5,686.7 L316.2,696.1 L332.5,714.6 L329.6,714.4 L328.2,714.3 L323.1,713.9 L323.1,713.9 L321.7,713.9 L320.6,713.8 L299.4,712.4 L299.4,712.4 L291.3,711.9 L290.9,711.9 L282.2,711.3 L283.2,652.7 L304.3,653.3 L304.2,646.4Z" fill="#a6761d"><title>Brooks - South Georgia</title></path>
<path d="M588.3,489.1 L597.2,500.8 L602.1,512.7 L621.2,526.2 L616.2,532.3 L619.1,546.2 L618.3,545.9 L614.2,545.2 L613.4,546.3 L592.9,532.5 L586.2,512.5 L577.3,507.9 L562.0,508.3 L560.6,502.2 L545.7,490.1 L537.6,480.3 L582.5,466.6 L588.3,489.1Z" fill="#1f78b4"><title>Bryan - Coastal Georgia</title></path>
<path d="M537.6,480.3 L533.0,467.2 L513.2,462.4 L519.7,439.7 L505.2,420.6 L505.6,418.1 L509.0,410.1 L529.8,403.6 L549.5,419.5 L567.9,428.3 L568.6,439.4 L582.5,466.6 L537.6,480.3Z" fill="#e6ab02"><title>Bulloch - East Georgia</title></path>
<path d="M528.4,311.1 L538.8,321.5 L548.6,331.3 L558.5,334.6 L559.1,335.0 L568.7,342.3 L539.4,363.3 L527.6,356.4 L498.5,362.2 L490.3,378.3 L467.9,374.7 L473.7,358.9 L471.2,339.6 L478.9,313.6 L474.3,308.0 L486.5,303.4 L497.7,313.7 L528.4,311.1Z" fill="#e6ab02"><title>Burke - East Georgia</title></path>
<path d="M266.7,292.4 L273.1,311.9 L272.0,321.5 L243.5,318.0 L232.8,318.0 L235.5,303.2 L243.3,297.8 L243.1,297.8 L243.1,297.7 L258.8,280.6 L266.7,292.4Z" fill="#66a61e"><title>Butts - Central Georgia</title></path>
<path d="M177.7,562.5 L190.3,562.5 L190.3,562.4 L192.9,591.0 L165.9,591.4 L146.2,591.1 L142.2,581.0 L142.5,562.7 L177.7,562.5Z" fill="#a6761d"><title>Calhoun - South Georgia</title></path>
<path d="M521.4,686.0 L523.2,664.6 L517.5,651.1 L539.5,632.3 L564.7,643.5 L581.6,655.9 L580.5,656.1 L579.7,656.9 L579.5,657.6 L578.2,659.1 L575.4,660.8 L575.0,662.0 L575.9,663.2 L577.3,663.8 L577.8,663.2 L578.5,663.0 L580.2,663.8 L581.0,665.2 L583.7,665.2 L584.6,662.5 L585.1,662.0 L586.1,662.0 L586.8,665.0 L586.5,672.7 L583.5,683.8 L583.2,684.6 L582.0,686.1 L581.1,687.8 L580.0,690.8 L579.4,694.1 L579.3,696.6 L579.5,698.4 L580.8,702.5 L581.5,703.4 L568.4,702.9 L560.4,702.1 L558.0,699.3 L556.3,699.7 L545.6,698.0 L543.9,697.2 L542.8,695.2 L540.4,693.9 L534.3,691.0 L531.6,691.1 L529.9,691.5 L526.2,690.6 L521.4,686.0Z" fill="#1f78b4"><title>Camden - Coastal Georgia</title></path>
<path d="M513.2,462.4 L509.1,461.2 L505.8,460.8 L478.8,454.6 L476.2,449.3 L489.8,423.5 L505.2,420.6 L519.7,439.7 L513.2,462.4Z" fill="#e6ab02"><title>Candler - East Georgia</title></path>
<path d="M74.8,248.3 L112.1,238.8 L113.8,223.8 L129.3,227.8 L131.5,228.6 L131.4,247.1 L131.0,260.7 L143.6,260.6 L138.2,270.2 L116.7,283.5 L80.5,283.1 L79.1,274.7 L77.9,267.4 L77.9,267.3 L77.8,266.5 L76.8,260.6 L74.8,248.3Z" fill="#e7298a"><title>Carroll - West Georgia</title></path>
<path d="M99.9,76.0 L92.5,74.9 L92.4,62.6 L84.3,62.6 L84.3,42.4 L85.6,42.4 L88.1,42.4 L88.8,42.4 L89.9,42.4 L90.0,42.3 L90.4,42.3 L90.6,42.3 L94.6,42.3 L95.3,42.3 L112.9,42.1 L112.9,42.2 L121.4,42.0 L110.7,68.0 L99.9,76.0Z" fill="#1b9e77"><title>Catoosa - North Georgia</title></path>
<path d="M492.0,656.9 L501.2,646.8 L517.5,651.1 L523.2,664.6 L521.4,686.0 L509.1,691.2 L506.1,692.2 L502.6,708.6 L502.7,711.8 L504.2,715.2 L507.4,721.0 L508.4,726.0 L506.9,732.8 L507.0,736.2 L502.6,757.1 L502.6,757.1 L492.9,756.4 L487.6,757.8 L486.8,757.5 L484.5,754.9 L482.6,751.1 L481.8,747.5 L482.3,742.7 L481.5,735.9 L481.2,725.5 L481.2,725.5 L489.6,691.9 L454.4,690.2 L455.0,656.4 L492.0,656.9Z" fill="#e6ab02"><title>Charlton - East Georgia</title></path>
<path d="M638.7,492.7 L654.1,498.6 L657.6,500.3 L658.5,499.8 L659.7,500.2 L660.0,502.2 L659.8,503.5 L659.0,505.7 L657.1,508.7 L654.5,510.2 L652.6,511.8 L650.8,512.6 L648.5,512.4 L648.3,510.6 L646.0,510.5 L642.8,513.0 L642.4,515.7 L643.4,516.9 L645.2,517.6 L646.9,517.4 L647.8,518.0 L646.1,520.0 L643.0,522.8 L640.2,525.9 L639.2,526.1 L637.4,524.4 L633.8,523.1 L630.8,522.9 L631.6,525.9 L631.6,527.1 L631.1,527.9 L629.3,529.2 L629.4,530.3 L631.8,531.3 L632.6,531.4 L633.0,531.0 L634.1,531.3 L634.4,531.8 L634.5,532.9 L633.1,534.4 L630.4,539.7 L629.2,540.8 L626.6,542.1 L622.3,546.8 L621.2,547.1 L619.1,546.2 L616.2,532.3 L621.2,526.2 L602.1,512.7 L597.2,500.8 L588.3,489.1 L613.8,467.2 L622.9,468.8 L623.4,478.9 L624.0,485.7 L624.5,486.4 L631.2,490.3 L633.7,490.8 L638.7,492.7Z" fill="#1f78b4"><title>Chatham - Coastal Georgia</title></path>
<path d="M128.7,468.1 L128.9,467.8 L130.6,463.2 L129.6,460.4 L126.7,457.4 L118.5,454.1 L117.8,453.1 L117.7,451.9 L120.4,445.0 L120.4,444.9 L138.4,439.8 L139.0,440.0 L140.3,440.0 L141.7,439.9 L142.9,439.8 L143.3,439.2 L143.5,438.8 L144.1,439.2 L144.9,439.6 L145.9,439.8 L146.3,439.3 L147.0,438.7 L147.2,438.5 L147.6,438.5 L148.1,438.7 L148.8,438.6 L158.5,423.7 L159.6,423.6 L160.6,423.7 L162.8,422.1 L163.2,422.2 L164.4,421.2 L165.9,421.2 L163.3,427.4 L163.1,467.9 L128.7,468.1Z" fill="#e7298a"><title>Chattahoochee - West Georgia</title></path>
<path d="M51.9,113.7 L51.9,113.7 L51.9,113.5 L50.2,103.7 L104.7,103.9 L95.3,127.3 L75.2,137.6 L68.3,150.5 L58.6,150.4 L53.4,121.4 L53.4,121.4 L52.6,117.2 L52.1,114.6 L51.9,113.7Z" fill="#1b9e77"><title>Chattooga - North Georgia</title></path>
<path d="M215.3,142.9 L215.2,166.0 L206.2,165.9 L194.4,183.4 L180.9,183.1 L163.1,182.7 L163.9,130.9 L173.1,135.7 L215.4,135.8 L215.3,136.7 L215.3,137.1 L215.3,142.9Z" fill="#d95f02"><title>Cherokee - Metro Atlanta</title></path>
<path d="M332.2,188.4 L345.4,194.9 L347.7,209.5 L343.1,218.2 L309.1,200.0 L332.2,188.4Z" fill="#7570b3"><title>Clarke - Northeast Georgia</title></path>
<path d="M142.5,562.7 L142.2,581.0 L114.9,583.4 L112.7,578.5 L113.4,574.9 L111.3,562.9 L111.0,562.4 L110.3,562.0 L107.4,559.4 L102.4,551.1 L102.3,547.7 L102.8,546.8 L103.3,545.2 L102.5,540.5 L102.5,539.9 L101.7,539.1 L100.7,537.9 L124.1,538.3 L126.2,562.9 L142.5,562.7Z" fill="#a6761d"><title>Clay - South Georgia</title></path>
<path d="M198.4,294.8 L199.2,277.7 L189.2,264.1 L189.2,263.3 L189.2,262.8 L189.2,261.8 L189.2,260.9 L189.2,260.8 L189.2,258.7 L189.2,255.2 L189.3,249.0 L201.3,249.2 L202.0,249.1 L203.3,249.1 L212.1,249.3 L212.3,249.2 L212.0,271.6 L202.9,281.9 L202.8,294.8 L198.4,294.8Z" fill="#66a61e"><title>Clayton - Central Georgia</title></path>
<path d="M449.3,722.8 L440.8,722.2 L439.3,722.1 L438.2,722.0 L437.1,721.9 L435.5,721.8 L435.1,721.7 L433.1,721.6 L430.5,702.8 L409.4,699.9 L399.0,684.0 L382.7,678.7 L382.7,630.1 L421.7,630.1 L432.1,655.7 L445.3,664.2 L444.7,686.4 L452.4,686.3 L454.6,723.2 L449.3,722.8 L449.3,722.8Z" fill="#e6ab02"><title>Clinch - East Georgia</title></path>
<path d="M154.6,213.0 L152.9,182.4 L154.0,182.5 L154.8,182.5 L154.9,182.5 L159.4,182.6 L159.8,182.6 L160.0,182.6 L160.9,182.6 L161.0,182.6 L161.2,182.6 L161.3,182.6 L163.1,182.7 L180.9,183.1 L194.4,183.4 L199.0,200.3 L191.3,209.9 L186.4,223.0 L173.6,234.4 L168.2,224.9 L154.6,224.7 L154.7,223.3 L154.5,223.0 L154.5,222.6 L154.6,213.0Z" fill="#d95f02"><title>Cobb - Metro Atlanta</title></path>
<path d="M427.5,554.5 L431.4,586.0 L427.4,586.0 L427.3,602.2 L402.7,602.2 L399.3,596.2 L360.7,593.5 L360.9,592.4 L361.3,592.0 L360.9,591.0 L361.0,590.3 L360.1,588.2 L359.4,587.9 L359.4,587.0 L360.0,586.0 L360.1,585.5 L379.2,554.4 L379.6,537.8 L396.8,537.5 L400.3,532.3 L400.3,554.7 L427.5,554.5Z" fill="#e6ab02"><title>Coffee - East Georgia</title></path>
<path d="M248.9,606.7 L293.9,607.4 L312.3,607.9 L312.7,626.6 L304.2,646.4 L304.3,653.3 L283.2,652.7 L248.4,652.1 L248.4,646.6 L248.9,606.7Z" fill="#a6761d"><title>Colquitt - South Georgia</title></path>
<path d="M493.9,258.1 L496.3,258.7 L500.1,260.4 L503.1,262.1 L505.5,265.1 L470.8,294.5 L452.3,264.3 L453.8,248.7 L469.3,241.0 L480.7,243.2 L483.5,251.8 L485.7,254.1 L491.6,257.9 L492.3,258.1 L492.9,257.9 L493.9,258.1Z" fill="#e6ab02"><title>Columbia - East Georgia</title></path>
<path d="M340.6,654.3 L317.1,653.6 L304.2,646.4 L312.7,626.6 L312.3,607.9 L319.1,608.1 L322.5,604.3 L339.2,632.7 L340.6,654.3Z" fill="#a6761d"><title>Cook - South Georgia</title></path>
<path d="M126.7,314.6 L116.7,283.5 L138.2,270.2 L169.6,271.6 L167.3,281.3 L184.1,309.5 L182.6,311.4 L183.8,313.2 L183.5,315.1 L138.0,314.7 L136.7,319.8 L126.7,314.6Z" fill="#e7298a"><title>Coweta - West Georgia</title></path>
<path d="M287.8,397.0 L279.2,396.8 L248.4,422.0 L235.2,399.8 L222.5,397.2 L232.7,372.6 L262.9,372.8 L271.7,389.2 L287.8,396.9 L287.8,397.0Z" fill="#66a61e"><title>Crawford - Central Georgia</title></path>
<path d="M253.9,499.2 L299.7,499.6 L299.3,526.5 L299.3,534.2 L274.6,534.3 L256.8,527.4 L256.9,527.2 L257.0,526.4 L257.1,525.9 L257.7,525.7 L258.4,525.0 L258.2,523.7 L257.8,522.9 L257.5,522.3 L257.7,521.7 L258.2,521.4 L257.7,520.3 L257.7,519.6 L258.3,518.7 L258.6,518.5 L259.0,517.9 L253.9,499.2Z" fill="#a6761d"><title>Crisp - South Georgia</title></path>
<path d="M40.0,42.5 L57.0,42.6 L71.4,42.7 L60.1,66.1 L60.1,77.3 L49.2,98.3 L48.3,93.2 L48.3,93.2 L46.9,85.2 L46.9,85.2 L42.9,61.7 L41.3,51.8 L41.3,51.8 L40.0,42.5Z" fill="#1b9e77"><title>Dade - North Georgia</title></path>
<path d="M215.3,142.9 L215.3,137.1 L215.3,136.7 L215.4,135.8 L215.4,122.5 L207.3,122.4 L203.9,107.7 L215.7,106.9 L223.3,99.2 L224.3,100.7 L224.3,101.5 L224.0,111.4 L235.6,122.9 L251.4,130.0 L254.5,143.1 L215.3,142.9Z" fill="#1b9e77"><title>Dawson - North Georgia</title></path>
<path d="M215.8,249.3 L212.3,249.2 L212.1,249.3 L203.3,249.1 L203.4,246.7 L203.5,217.5 L203.6,216.7 L203.6,216.4 L203.5,216.1 L203.6,215.6 L203.5,215.1 L203.6,213.4 L203.5,213.0 L203.6,211.3 L203.6,209.4 L203.6,207.3 L203.6,207.3 L203.6,206.0 L203.6,204.3 L212.9,201.3 L213.0,201.8 L213.5,201.5 L214.2,202.8 L213.5,203.2 L214.3,205.1 L215.2,207.3 L215.6,208.0 L216.3,208.5 L218.7,209.9 L220.7,212.5 L222.2,213.7 L222.4,214.4 L224.5,215.5 L225.5,215.7 L226.5,216.7 L245.8,232.9 L241.5,237.0 L235.3,251.0 L224.9,249.4 L219.7,249.4 L219.7,251.8 L216.9,251.8 L215.8,249.3Z" fill="#d95f02"><title>DeKalb - Metro Atlanta</title></path>
<path d="M182.8,646.4 L199.9,646.3 L199.3,706.5 L179.3,705.4 L178.7,705.4 L170.0,704.9 L170.0,704.9 L136.5,703.1 L150.5,676.2 L153.8,647.8 L178.3,646.3 L182.8,646.4Z" fill="#a6761d"><title>Decatur - South Georgia</title></path>
<path d="M333.9,461.8 L339.3,451.0 L356.5,434.0 L360.9,438.5 L380.2,481.1 L394.0,473.6 L395.7,475.7 L388.4,483.0 L387.5,480.2 L384.8,483.0 L386.5,484.7 L352.2,519.3 L341.0,506.3 L335.1,487.5 L341.1,476.3 L333.9,461.8Z" fill="#66a61e"><title>Dodge - Central Georgia</title></path>
<path d="M245.2,477.5 L253.4,465.6 L268.6,458.9 L298.9,459.3 L299.8,485.6 L299.8,485.9 L299.7,499.6 L253.9,499.2 L245.2,477.5Z" fill="#a6761d"><title>Dooly - South Georgia</title></path>
<path d="M190.3,562.4 L210.1,562.4 L243.3,562.1 L246.5,558.0 L251.1,586.9 L249.2,587.0 L249.2,589.9 L230.5,590.5 L192.9,591.0 L190.3,562.4Z" fill="#a6761d"><title>Dougherty - South Georgia</title></path>
<path d="M148.7,228.0 L152.4,227.4 L154.5,227.4 L154.6,227.0 L154.6,224.7 L168.2,224.9 L173.6,234.4 L172.5,236.6 L171.5,236.6 L170.6,237.3 L169.8,239.1 L168.0,240.4 L166.6,241.0 L166.9,242.2 L150.9,251.9 L149.6,254.4 L147.9,255.1 L144.0,258.7 L143.6,260.6 L131.0,260.7 L131.4,247.1 L131.5,228.6 L134.5,229.5 L140.5,229.3 L140.5,229.0 L144.8,228.7 L145.4,228.8 L145.8,228.5 L148.7,228.0Z" fill="#e7298a"><title>Douglas - West Georgia</title></path>
<path d="M112.7,578.5 L114.9,583.4 L142.2,581.0 L146.2,591.1 L165.9,591.4 L165.4,618.5 L129.5,618.9 L128.8,647.3 L118.8,647.0 L118.5,646.9 L115.9,646.8 L114.9,643.6 L114.1,641.8 L108.8,634.3 L107.9,633.8 L106.8,633.7 L105.7,632.9 L104.8,629.7 L104.2,618.6 L105.5,614.7 L107.3,610.8 L109.9,592.4 L112.7,578.5Z" fill="#a6761d"><title>Early - South Georgia</title></path>
<path d="M361.2,716.6 L361.3,693.3 L367.5,681.9 L376.5,681.8 L377.2,682.5 L378.1,680.2 L379.8,680.0 L381.3,678.3 L382.7,678.7 L399.0,684.0 L409.4,699.9 L430.5,702.8 L433.1,721.6 L419.4,720.7 L419.4,720.7 L418.2,720.6 L418.2,720.6 L395.0,719.0 L394.8,718.9 L361.2,716.6Z" fill="#e6ab02"><title>Echols - East Georgia</title></path>
<path d="M593.9,415.9 L596.5,417.1 L597.8,417.4 L601.9,419.7 L603.4,420.5 L613.4,431.7 L617.4,447.0 L620.9,449.9 L621.8,451.1 L623.3,456.7 L623.6,459.7 L622.6,461.2 L622.9,468.8 L613.8,467.2 L588.3,489.1 L582.5,466.6 L568.6,439.4 L567.9,428.3 L569.2,425.2 L588.6,411.9 L593.9,415.9Z" fill="#1f78b4"><title>Effingham - Coastal Georgia</title></path>
<path d="M412.6,162.5 L413.9,167.1 L415.8,171.4 L417.5,172.9 L421.0,174.4 L422.2,176.1 L423.4,178.7 L423.4,178.8 L424.0,179.2 L424.3,179.3 L425.7,181.0 L425.8,181.1 L431.4,192.8 L435.7,201.5 L435.7,201.6 L425.1,197.2 L407.7,199.2 L382.1,188.0 L365.7,167.8 L368.8,160.1 L381.5,162.0 L409.4,149.3 L410.9,152.0 L412.6,159.1 L412.4,159.6 L412.3,159.9 L412.6,162.2 L412.6,162.5Z" fill="#7570b3"><title>Elbert - Northeast Georgia</title></path>
<path d="M424.8,424.7 L431.8,414.4 L448.6,403.9 L444.1,397.8 L452.6,386.1 L467.9,374.7 L490.3,378.3 L498.4,401.4 L509.0,410.1 L505.6,418.1 L505.2,420.6 L489.8,423.5 L476.2,449.3 L478.8,454.6 L463.0,458.7 L455.9,449.2 L459.4,435.8 L445.5,427.9 L424.8,424.7Z" fill="#66a61e"><title>Emanuel - Central Georgia</title></path>
<path d="M513.2,462.4 L533.0,467.2 L537.6,480.3 L545.7,490.1 L540.1,496.5 L511.7,491.3 L505.8,460.8 L509.1,461.2 L513.2,462.4Z" fill="#e6ab02"><title>Evans - East Georgia</title></path>
<path d="M168.0,41.9 L182.5,42.0 L182.6,42.0 L197.5,42.0 L197.6,42.0 L207.0,41.9 L232.0,42.1 L232.0,42.1 L225.6,48.4 L234.9,57.6 L236.7,70.8 L228.3,94.5 L224.3,101.5 L224.3,100.7 L223.3,99.2 L207.9,69.9 L193.0,62.5 L168.4,62.5 L168.0,41.9Z" fill="#1b9e77"><title>Fannin - North Georgia</title></path>
<path d="M184.1,309.5 L167.3,281.3 L169.6,271.6 L189.2,264.1 L199.2,277.7 L198.4,294.8 L192.5,309.7 L184.1,309.5Z" fill="#66a61e"><title>Fayette - Central Georgia</title></path>
<path d="M109.7,103.9 L107.5,132.7 L118.0,134.0 L112.6,179.8 L85.2,179.2 L63.9,182.2 L59.5,156.0 L59.5,155.6 L59.1,153.6 L59.1,153.1 L58.6,150.4 L68.3,150.5 L75.2,137.6 L95.3,127.3 L104.7,103.9 L109.7,103.9Z" fill="#1b9e77"><title>Floyd - North Georgia</title></path>
<path d="M215.3,142.9 L254.5,143.1 L258.3,151.5 L250.3,164.5 L240.7,168.8 L239.2,169.4 L236.5,174.4 L235.7,178.3 L235.5,178.7 L235.2,178.9 L234.9,179.3 L234.6,179.5 L233.5,184.6 L236.2,186.9 L222.8,180.8 L215.2,177.8 L215.2,166.0 L215.3,142.9Z" fill="#7570b3"><title>Forsyth - Northeast Georgia</title></path>
<path d="M332.8,160.1 L327.7,144.5 L327.2,123.5 L355.9,121.0 L365.1,112.2 L367.7,115.0 L369.5,116.7 L372.2,118.5 L366.7,130.4 L364.2,152.4 L356.5,157.8 L340.3,153.8 L332.8,160.1Z" fill="#7570b3"><title>Franklin - Northeast Georgia</title></path>
<path d="M150.9,251.9 L166.9,242.2 L166.6,241.0 L168.0,240.4 L169.8,239.1 L170.6,237.3 L171.5,236.6 L172.5,236.6 L173.6,234.4 L186.4,223.0 L191.3,209.9 L199.0,200.3 L194.4,183.4 L206.2,165.9 L215.2,166.0 L215.2,177.8 L222.8,180.8 L236.2,186.9 L212.9,201.3 L203.6,204.3 L203.6,206.0 L203.6,207.3 L203.6,207.3 L203.6,209.4 L203.6,211.3 L203.5,213.0 L203.6,213.4 L203.5,215.1 L203.6,215.6 L203.5,216.1 L203.6,216.4 L203.6,216.7 L203.5,217.5 L203.4,246.7 L203.3,249.1 L202.0,249.1 L201.3,249.2 L189.3,249.0 L189.2,255.2 L189.2,258.7 L189.2,260.8 L189.2,260.9 L189.2,261.8 L189.2,262.8 L189.2,263.3 L189.2,264.1 L169.6,271.6 L138.2,270.2 L143.6,260.6 L144.0,258.7 L147.9,255.1 L149.6,254.4 L150.9,251.9Z" fill="#d95f02"><title>Fulton - Metro Atlanta</title></path>
<path d="M163.7,109.9 L163.7,104.6 L163.4,82.0 L173.1,67.2 L168.4,62.5 L193.0,62.5 L207.9,69.9 L223.3,99.2 L215.7,106.9 L203.9,107.7 L163.7,109.9Z" fill="#1b9e77"><title>Gilmer - North Georgia</title></path>
<path d="M452.9,306.8 L423.0,329.8 L411.8,312.5 L411.9,311.0 L410.8,310.1 L436.3,298.7 L452.9,306.8Z" fill="#66a61e"><title>Glascock - Central Georgia</title></path>
<path d="M581.6,655.9 L564.7,643.5 L539.5,632.3 L544.0,607.5 L549.2,596.6 L558.0,588.5 L582.5,610.1 L604.1,613.0 L603.5,613.8 L603.2,619.1 L602.4,620.7 L601.6,623.7 L601.7,625.9 L601.1,626.6 L599.6,626.6 L598.4,626.4 L595.1,629.6 L593.1,632.7 L592.3,634.4 L592.5,635.5 L591.3,637.4 L588.9,637.9 L587.2,637.8 L586.9,639.1 L586.7,642.0 L587.0,645.2 L587.0,647.3 L585.2,654.4 L584.5,655.9 L584.0,656.4 L583.0,656.5 L582.7,656.2 L582.7,655.8 L581.6,655.9Z" fill="#1f78b4"><title>Glynn - Coastal Georgia</title></path>
<path d="M163.7,104.6 L163.7,109.9 L163.9,130.9 L136.6,133.4 L118.0,134.0 L107.5,132.7 L109.7,103.9 L110.9,103.9 L110.9,98.5 L111.6,98.5 L111.6,98.5 L112.2,98.5 L130.0,96.7 L136.5,100.6 L155.6,98.4 L163.7,104.6Z" fill="#1b9e77"><title>Gordon - North Georgia</title></path>
<path d="M199.3,706.5 L199.9,646.3 L233.7,646.5 L233.4,661.5 L238.9,671.6 L238.0,708.6 L212.3,707.2 L212.1,707.2 L199.3,706.5Z" fill="#a6761d"><title>Grady - South Georgia</title></path>
<path d="M357.6,294.4 L342.6,274.6 L344.0,266.9 L326.1,241.4 L342.5,231.5 L363.5,241.3 L379.6,242.1 L385.4,247.6 L377.2,259.6 L377.3,276.8 L357.6,294.4Z" fill="#66a61e"><title>Greene - Central Georgia</title></path>
<path d="M234.6,179.5 L234.9,179.3 L235.2,178.9 L235.5,178.7 L235.7,178.3 L236.5,174.4 L239.2,169.4 L240.7,168.8 L266.0,179.5 L272.6,175.0 L265.9,194.0 L275.0,205.6 L251.2,227.8 L250.9,228.1 L245.8,232.9 L226.5,216.7 L225.5,215.7 L224.5,215.5 L222.4,214.4 L222.2,213.7 L220.7,212.5 L218.7,209.9 L216.3,208.5 L215.6,208.0 L215.2,207.3 L214.3,205.1 L213.5,203.2 L214.2,202.8 L213.5,201.5 L213.0,201.8 L212.9,201.3 L236.2,186.9 L233.5,184.6 L234.6,179.5Z" fill="#d95f02"><title>Gwinnett - Metro Atlanta</title></path>
<path d="M333.1,84.0 L333.3,84.3 L333.3,84.5 L333.3,86.2 L335.0,88.4 L335.0,88.4 L319.2,120.3 L309.1,118.7 L298.9,128.0 L292.3,116.9 L298.9,109.2 L292.7,92.7 L297.9,81.5 L290.3,70.9 L292.2,70.0 L293.4,68.9 L294.1,67.5 L302.6,67.9 L307.6,78.9 L333.1,84.0 L333.1,84.0Z" fill="#1b9e77"><title>Habersham - North Georgia</title></path>
<path d="M240.7,168.8 L250.3,164.5 L258.3,151.5 L254.5,143.1 L251.4,130.0 L269.3,116.6 L292.3,116.9 L298.9,128.0 L291.9,138.0 L298.3,149.1 L272.6,175.0 L266.0,179.5 L240.7,168.8Z" fill="#7570b3"><title>Hall - Northeast Georgia</title></path>
<path d="M372.2,336.8 L365.9,341.6 L366.3,325.9 L343.3,320.4 L346.0,309.2 L360.0,301.1 L357.6,294.4 L377.3,276.8 L398.3,280.7 L410.8,310.1 L411.9,311.0 L411.8,312.5 L397.9,318.9 L393.5,327.9 L372.2,336.8Z" fill="#66a61e"><title>Hancock - Central Georgia</title></path>
<path d="M68.4,209.9 L112.2,209.5 L114.0,209.5 L113.8,223.8 L112.1,238.8 L74.8,248.3 L71.8,230.6 L71.7,229.7 L68.4,209.9Z" fill="#e7298a"><title>Haralson - West Georgia</title></path>
<path d="M101.6,385.8 L102.7,384.5 L94.8,369.3 L136.7,369.0 L157.7,373.3 L158.5,413.6 L130.7,413.7 L130.8,410.0 L108.0,410.1 L105.1,404.6 L103.8,397.9 L100.9,388.7 L100.9,388.5 L101.6,385.8Z" fill="#e7298a"><title>Harris - West Georgia</title></path>
<path d="M380.0,120.6 L381.7,120.1 L386.9,119.6 L391.7,119.6 L394.2,120.7 L395.4,121.8 L395.3,122.2 L398.7,129.2 L409.4,149.3 L381.5,162.0 L368.8,160.1 L364.0,154.2 L364.2,152.4 L366.7,130.4 L372.2,118.5 L374.5,120.0 L378.1,121.4 L379.6,121.4 L380.0,120.7 L380.0,120.6Z" fill="#7570b3"><title>Hart - Northeast Georgia</title></path>
<path d="M80.5,283.1 L116.7,283.5 L126.7,314.6 L88.0,329.3 L80.5,283.1Z" fill="#e7298a"><title>Heard - West Georgia</title></path>
<path d="M212.0,271.6 L212.3,249.2 L215.8,249.3 L216.9,251.8 L219.7,251.8 L219.7,249.4 L224.9,249.4 L225.2,252.0 L226.5,253.2 L231.1,260.8 L243.1,268.0 L258.8,280.6 L243.1,297.7 L243.1,297.8 L243.3,297.8 L235.5,303.2 L229.3,297.4 L202.8,294.8 L202.9,281.9 L212.0,271.6Z" fill="#66a61e"><title>Henry - Central Georgia</title></path>
<path d="M268.6,458.9 L268.8,431.5 L285.3,421.7 L287.8,397.0 L287.8,396.9 L301.2,401.2 L305.3,401.8 L314.2,434.0 L316.2,438.3 L314.2,441.8 L298.9,459.3 L268.6,458.9Z" fill="#66a61e"><title>Houston - Central Georgia</title></path>
<path d="M313.8,566.7 L320.0,541.3 L336.7,541.5 L336.6,553.3 L355.9,557.8 L356.0,553.6 L379.2,554.4 L360.1,585.5 L360.0,585.5 L334.9,584.9 L313.8,566.7Z" fill="#66a61e"><title>Irwin - Central Georgia</title></path>
<path d="M332.2,188.4 L309.1,200.0 L305.7,189.8 L279.1,184.4 L272.6,175.0 L298.3,149.1 L316.5,154.2 L326.6,164.2 L332.2,188.4Z" fill="#7570b3"><title>Jackson - Northeast Georgia</title></path>
<path d="M272.8,328.9 L272.7,327.4 L273.1,326.4 L271.9,324.9 L271.7,322.2 L272.0,321.5 L273.1,311.9 L266.7,292.4 L271.7,281.7 L291.2,274.0 L290.2,268.0 L302.6,277.3 L309.5,282.1 L309.0,288.4 L308.0,322.7 L272.8,328.9Z" fill="#66a61e"><title>Jasper - Central Georgia</title></path>
<path d="M441.3,548.6 L441.3,554.5 L427.5,554.5 L400.3,554.7 L400.3,532.3 L425.1,516.5 L438.4,510.3 L446.3,508.7 L446.7,508.3 L449.5,509.5 L450.3,509.4 L451.3,508.9 L452.0,508.9 L453.0,509.1 L453.0,529.0 L441.4,528.9 L441.3,548.6Z" fill="#e6ab02"><title>Jeff Davis - East Georgia</title></path>
<path d="M452.6,386.1 L441.3,376.8 L442.7,362.0 L437.5,346.3 L423.0,329.8 L452.9,306.8 L459.2,301.1 L460.7,301.3 L462.6,301.0 L463.1,301.0 L468.6,303.4 L470.5,306.4 L471.8,306.9 L472.9,307.7 L474.3,308.0 L478.9,313.6 L471.2,339.6 L473.7,358.9 L467.9,374.7 L452.6,386.1Z" fill="#66a61e"><title>Jefferson - Central Georgia</title></path>
<path d="M539.4,363.3 L526.3,398.6 L529.8,403.6 L509.0,410.1 L498.4,401.4 L490.3,378.3 L498.5,362.2 L527.6,356.4 L539.4,363.3Z" fill="#e6ab02"><title>Jenkins - East Georgia</title></path>
<path d="M385.9,386.5 L404.7,378.7 L409.1,385.0 L441.3,376.8 L452.6,386.1 L444.1,397.8 L448.6,403.9 L431.8,414.4 L424.8,424.7 L422.1,409.3 L396.9,393.3 L384.6,394.4 L386.0,389.3 L385.9,386.5Z" fill="#66a61e"><title>Johnson - Central Georgia</title></path>
<path d="M332.5,360.7 L326.1,365.0 L326.0,365.1 L326.0,365.1 L312.2,373.3 L293.3,366.6 L286.5,356.6 L281.8,339.5 L272.8,328.9 L308.0,322.7 L323.2,320.7 L325.0,331.9 L329.5,349.6 L332.5,360.7Z" fill="#66a61e"><title>Jones - Central Georgia</title></path>
<path d="M213.7,350.7 L216.6,320.1 L232.8,318.0 L243.5,318.0 L243.1,357.4 L232.8,359.8 L233.0,350.9 L213.7,350.7Z" fill="#66a61e"><title>Lamar - Central Georgia</title></path>
<path d="M376.5,681.8 L373.4,666.7 L355.6,666.2 L353.2,654.6 L357.5,635.8 L374.0,635.8 L372.9,630.1 L382.7,630.1 L382.7,678.7 L381.3,678.3 L379.8,680.0 L378.1,680.2 L377.2,682.5 L376.5,681.8Z" fill="#a6761d"><title>Lanier - South Georgia</title></path>
<path d="M349.5,413.6 L384.5,394.4 L384.6,394.4 L396.9,393.3 L422.1,409.3 L424.8,424.7 L413.2,451.7 L415.2,456.1 L394.0,473.6 L380.2,481.1 L360.9,438.5 L349.5,413.6Z" fill="#66a61e"><title>Laurens - Central Georgia</title></path>
<path d="M259.0,517.9 L258.6,518.5 L258.3,518.7 L257.7,519.6 L257.7,520.3 L258.2,521.4 L257.7,521.7 L257.5,522.3 L257.8,522.9 L258.2,523.7 L258.4,525.0 L257.7,525.7 L257.1,525.9 L257.0,526.4 L256.9,527.2 L256.8,527.4 L244.7,547.7 L246.5,558.0 L243.3,562.1 L210.1,562.4 L211.6,536.2 L204.9,523.5 L204.9,516.9 L259.0,517.9Z" fill="#a6761d"><title>Lee - South Georgia</title></path>
<path d="M614.0,570.7 L605.2,558.0 L582.5,559.3 L575.3,550.4 L555.7,540.2 L539.7,523.3 L541.6,508.1 L532.0,501.6 L533.9,500.9 L540.1,496.5 L545.7,490.1 L560.6,502.2 L562.0,508.3 L577.3,507.9 L586.2,512.5 L592.9,532.5 L613.4,546.3 L612.8,547.3 L615.0,550.1 L618.3,551.6 L619.1,551.2 L619.5,550.5 L619.8,550.4 L621.1,550.3 L622.2,550.9 L621.6,552.8 L621.5,554.2 L622.1,557.3 L621.9,562.1 L619.7,566.8 L618.4,570.3 L616.7,572.6 L616.0,572.6 L615.4,571.9 L615.0,570.7 L614.0,570.7Z" fill="#1f78b4"><title>Liberty - Coastal Georgia</title></path>
<path d="M453.8,248.7 L453.1,248.0 L452.4,248.5 L450.3,248.9 L449.5,250.8 L448.0,250.6 L447.1,249.7 L446.7,250.4 L431.9,221.4 L425.1,197.2 L435.7,201.6 L453.3,215.5 L454.1,215.8 L456.0,215.4 L456.6,215.5 L466.9,222.5 L469.9,225.3 L476.9,233.0 L480.7,243.2 L469.3,241.0 L453.8,248.7Z" fill="#e6ab02"><title>Lincoln - East Georgia</title></path>
<path d="M575.3,550.4 L565.6,569.4 L553.0,575.2 L528.6,555.3 L513.2,536.5 L532.0,501.6 L541.6,508.1 L539.7,523.3 L555.7,540.2 L575.3,550.4Z" fill="#e6ab02"><title>Long - East Georgia</title></path>
<path d="M317.1,653.6 L340.6,654.3 L342.5,654.4 L343.4,654.4 L353.2,654.6 L355.6,666.2 L373.4,666.7 L376.5,681.8 L367.5,681.9 L361.3,693.3 L361.2,716.6 L358.7,716.4 L357.7,716.3 L356.3,716.3 L354.6,716.1 L345.7,715.5 L338.8,715.0 L338.8,715.0 L338.7,715.0 L338.4,715.0 L334.6,714.7 L334.6,714.7 L332.5,714.6 L316.2,696.1 L320.5,686.7 L332.3,683.8 L319.4,658.4 L319.1,658.1 L319.0,657.6 L318.7,657.6 L318.6,656.8 L318.3,656.4 L318.4,655.7 L318.1,655.2 L317.7,654.8 L317.6,654.4 L318.1,654.1 L317.7,654.1 L317.5,653.9 L317.4,654.1 L317.3,653.7 L316.9,653.7 L317.1,653.6Z" fill="#a6761d"><title>Lowndes - South Georgia</title></path>
<path d="M269.3,116.6 L251.4,130.0 L235.6,122.9 L224.0,111.4 L224.3,101.5 L228.3,94.5 L244.1,95.5 L256.8,80.2 L267.5,83.1 L264.8,97.4 L269.3,116.6Z" fill="#1b9e77"><title>Lumpkin - North Georgia</title></path>
<path d="M225.2,468.4 L215.6,458.1 L215.7,446.4 L233.0,425.7 L247.8,423.2 L268.8,431.5 L268.6,458.9 L253.4,465.6 L245.2,477.5 L225.2,468.4Z" fill="#66a61e"><title>Macon - Central Georgia</title></path>
<path d="M345.4,194.9 L332.2,188.4 L326.6,164.2 L326.9,163.7 L330.5,162.9 L332.8,160.1 L340.3,153.8 L356.5,157.8 L364.2,152.4 L364.0,154.2 L368.8,160.1 L365.7,167.8 L382.1,188.0 L372.6,192.2 L362.9,187.4 L345.4,194.9Z" fill="#7570b3"><title>Madison - Northeast Georgia</title></path>
<path d="M164.4,467.9 L163.1,467.9 L163.3,427.4 L165.9,421.2 L191.1,417.0 L197.8,439.9 L192.9,478.2 L192.8,483.2 L180.3,483.1 L164.4,467.9Z" fill="#e7298a"><title>Marion - West Georgia</title></path>
<path d="M453.8,248.7 L452.3,264.3 L470.8,294.5 L463.5,300.6 L463.1,301.0 L462.6,301.0 L460.7,301.3 L459.2,301.1 L437.6,294.0 L424.6,255.2 L446.7,250.4 L447.1,249.7 L448.0,250.6 L449.5,250.8 L450.3,248.9 L452.4,248.5 L453.1,248.0 L453.8,248.7Z" fill="#e6ab02"><title>McDuffie - East Georgia</title></path>
<path d="M553.0,575.2 L565.6,569.4 L575.3,550.4 L582.5,559.3 L605.2,558.0 L614.0,570.7 L612.7,570.7 L611.3,572.3 L607.9,573.1 L606.2,572.6 L605.4,573.7 L604.9,576.2 L605.0,576.4 L605.6,576.7 L610.9,577.0 L611.5,576.9 L613.3,575.4 L614.1,575.7 L615.6,576.9 L616.0,577.7 L616.2,578.6 L614.6,580.7 L612.6,585.4 L607.1,593.1 L605.6,596.0 L603.0,601.7 L602.9,604.2 L602.4,608.0 L603.5,608.1 L604.4,608.4 L606.1,609.7 L605.3,611.5 L604.1,613.0 L582.5,610.1 L558.0,588.5 L553.0,575.2Z" fill="#1f78b4"><title>McIntosh - Coastal Georgia</title></path>
<path d="M136.7,319.8 L138.0,314.7 L183.5,315.1 L184.7,318.4 L184.2,320.9 L180.3,353.9 L182.9,367.6 L174.6,373.3 L157.7,373.3 L136.7,369.0 L136.7,319.8Z" fill="#e7298a"><title>Meriwether - West Georgia</title></path>
<path d="M128.8,647.3 L129.5,618.9 L165.4,618.5 L179.0,618.9 L178.3,646.3 L153.8,647.8 L128.8,647.3Z" fill="#a6761d"><title>Miller - South Georgia</title></path>
<path d="M199.9,646.3 L182.8,646.4 L186.0,634.5 L196.3,627.7 L204.6,611.3 L222.8,603.5 L230.5,590.5 L249.2,589.9 L248.9,606.7 L248.4,646.6 L248.3,646.6 L233.7,646.5 L199.9,646.3Z" fill="#a6761d"><title>Mitchell - South Georgia</title></path>
<path d="M272.0,321.5 L271.7,322.2 L271.9,324.9 L273.1,326.4 L272.7,327.4 L272.8,328.9 L281.8,339.5 L286.5,356.6 L262.9,372.8 L232.7,372.6 L232.8,359.8 L243.1,357.4 L243.5,318.0 L272.0,321.5Z" fill="#66a61e"><title>Monroe - Central Georgia</title></path>
<path d="M455.9,449.2 L446.3,508.7 L438.4,510.3 L431.3,501.7 L429.4,478.9 L423.8,457.9 L455.9,449.2Z" fill="#e6ab02"><title>Montgomery - East Georgia</title></path>
<path d="M342.6,274.6 L309.5,282.1 L302.6,277.3 L290.2,268.0 L290.8,261.0 L290.3,260.0 L289.6,259.3 L289.6,258.3 L290.4,257.0 L313.2,222.9 L326.1,241.4 L344.0,266.9 L342.6,274.6Z" fill="#66a61e"><title>Morgan - Central Georgia</title></path>
<path d="M147.9,42.0 L153.7,42.0 L154.2,42.0 L168.0,41.9 L168.4,62.5 L173.1,67.2 L163.4,82.0 L163.7,104.6 L155.6,98.4 L136.5,100.6 L130.0,96.7 L127.4,85.4 L136.3,85.4 L134.6,74.2 L142.3,59.1 L143.4,42.0 L143.6,42.0 L143.7,42.0 L147.9,42.0Z" fill="#1b9e77"><title>Murray - North Georgia</title></path>
<path d="M118.6,425.0 L118.6,424.6 L117.8,422.9 L115.8,420.0 L112.9,417.4 L109.7,413.6 L108.3,410.7 L108.3,410.6 L108.0,410.1 L130.8,410.0 L130.7,413.7 L158.5,413.6 L158.5,423.7 L148.8,438.6 L148.1,438.7 L147.6,438.5 L147.2,438.5 L147.0,438.7 L146.3,439.3 L145.9,439.8 L144.9,439.6 L144.1,439.2 L143.5,438.8 L143.3,439.2 L142.9,439.8 L141.7,439.9 L140.3,440.0 L139.0,440.0 L138.4,439.8 L120.4,444.9 L121.4,440.2 L120.9,435.0 L119.0,431.3 L118.6,425.6 L118.6,425.0 L118.6,425.0Z" fill="#e7298a"><title>Muscogee - West Georgia</title></path>
<path d="M290.2,268.0 L291.2,274.0 L271.7,281.7 L266.7,292.4 L258.8,280.6 L243.1,268.0 L245.6,264.7 L245.7,264.6 L252.4,255.7 L260.0,234.3 L277.8,247.5 L290.4,257.0 L289.6,258.3 L289.6,259.3 L290.3,260.0 L290.8,261.0 L290.2,268.0Z" fill="#66a61e"><title>Newton - Central Georgia</title></path>
<path d="M313.2,222.9 L294.8,209.2 L309.1,200.0 L343.1,218.2 L342.5,231.5 L326.1,241.4 L313.2,222.9Z" fill="#7570b3"><title>Oconee - Northeast Georgia</title></path>
<path d="M407.7,199.2 L395.3,206.8 L380.7,228.6 L385.6,235.9 L380.4,240.1 L379.6,242.1 L363.5,241.3 L342.5,231.5 L343.1,218.2 L347.7,209.5 L345.4,194.9 L362.9,187.4 L372.6,192.2 L382.1,188.0 L407.7,199.2Z" fill="#7570b3"><title>Oglethorpe - Northeast Georgia</title></path>
<path d="M112.2,209.5 L121.5,202.2 L128.8,182.0 L152.9,182.4 L154.6,213.0 L154.5,222.6 L154.5,223.0 L154.7,223.3 L154.6,224.7 L154.6,227.0 L154.5,227.4 L152.4,227.4 L148.7,228.0 L145.8,228.5 L145.4,228.8 L144.8,228.7 L140.5,229.0 L140.5,229.3 L134.5,229.5 L131.5,228.6 L129.3,227.8 L113.8,223.8 L114.0,209.5 L112.2,209.5Z" fill="#e7298a"><title>Paulding - West Georgia</title></path>
<path d="M268.8,431.5 L247.8,423.2 L248.7,423.4 L248.4,422.0 L279.2,396.8 L287.8,397.0 L285.3,421.7 L268.8,431.5Z" fill="#66a61e"><title>Peach - Central Georgia</title></path>
<path d="M163.7,109.9 L203.9,107.7 L207.3,122.4 L215.4,122.5 L215.4,135.8 L173.1,135.7 L163.9,130.9 L163.7,109.9Z" fill="#1b9e77"><title>Pickens - North Georgia</title></path>
<path d="M454.8,594.0 L464.3,592.0 L479.6,576.5 L491.8,585.7 L502.3,588.2 L503.8,600.7 L508.2,615.7 L496.1,615.7 L483.8,626.4 L472.1,623.8 L459.2,613.5 L454.8,594.0Z" fill="#e6ab02"><title>Pierce - East Georgia</title></path>
<path d="M216.6,320.1 L213.7,350.7 L185.1,350.3 L180.3,353.9 L184.2,320.9 L190.1,317.0 L216.6,320.1Z" fill="#66a61e"><title>Pike - Central Georgia</title></path>
<path d="M128.8,182.0 L121.5,202.2 L112.2,209.5 L68.4,209.9 L66.8,200.3 L63.9,182.2 L85.2,179.2 L112.6,179.8 L128.8,182.0Z" fill="#1b9e77"><title>Polk - North Georgia</title></path>
<path d="M314.2,441.8 L333.9,461.8 L341.1,476.3 L335.1,487.5 L299.8,485.6 L298.9,459.3 L314.2,441.8Z" fill="#66a61e"><title>Pulaski - Central Georgia</title></path>
<path d="M308.0,322.7 L309.0,288.4 L309.5,282.1 L342.6,274.6 L357.6,294.4 L360.0,301.1 L346.0,309.2 L343.3,320.4 L323.2,320.7 L308.0,322.7Z" fill="#66a61e"><title>Putnam - Central Georgia</title></path>
<path d="M110.6,505.2 L130.8,515.6 L130.4,538.4 L124.1,538.3 L100.7,537.9 L100.4,537.4 L100.3,528.7 L101.4,521.2 L104.9,517.0 L108.1,512.5 L109.3,509.4 L110.6,505.2Z" fill="#a6761d"><title>Quitman - South Georgia</title></path>
<path d="M364.9,40.0 L360.4,51.8 L347.4,59.0 L344.2,66.0 L342.2,67.7 L336.8,72.8 L334.9,80.1 L333.1,84.0 L307.6,78.9 L302.6,67.9 L294.1,67.5 L293.5,58.9 L307.5,41.3 L316.1,41.1 L364.9,40.0 L364.9,40.0Z" fill="#1b9e77"><title>Rabun - North Georgia</title></path>
<path d="M124.1,538.3 L130.4,538.4 L130.8,515.6 L163.5,516.2 L170.8,516.3 L170.4,539.2 L179.2,553.1 L177.7,562.5 L142.5,562.7 L126.2,562.9 L124.1,538.3Z" fill="#a6761d"><title>Randolph - South Georgia</title></path>
<path d="M505.5,265.1 L507.3,267.3 L508.1,268.4 L508.2,268.5 L513.4,275.0 L514.6,276.9 L520.5,286.1 L521.8,298.1 L528.4,311.0 L528.4,311.1 L497.7,313.7 L486.5,303.4 L474.3,308.0 L472.9,307.7 L471.8,306.9 L470.5,306.4 L468.6,303.4 L463.1,301.0 L463.5,300.6 L470.8,294.5 L505.5,265.1Z" fill="#e6ab02"><title>Richmond - East Georgia</title></path>
<path d="M245.8,232.9 L250.9,228.1 L251.2,227.8 L254.8,230.4 L254.9,230.6 L260.0,234.3 L252.4,255.7 L245.7,264.6 L245.6,264.7 L243.1,268.0 L231.1,260.8 L226.5,253.2 L225.2,252.0 L224.9,249.4 L235.3,251.0 L241.5,237.0 L245.8,232.9Z" fill="#66a61e"><title>Rockdale - Central Georgia</title></path>
<path d="M215.7,446.4 L215.6,458.1 L225.2,468.4 L225.0,479.4 L192.9,478.2 L197.8,439.9 L215.7,446.4Z" fill="#a6761d"><title>Schley - South Georgia</title></path>
<path d="M586.5,388.7 L585.3,405.4 L584.8,405.8 L584.8,406.6 L585.7,408.3 L588.6,411.9 L588.6,411.9 L569.2,425.2 L567.9,428.3 L549.5,419.5 L529.8,403.6 L526.3,398.6 L539.4,363.3 L568.7,342.3 L572.7,345.5 L574.6,347.7 L575.3,349.5 L574.9,352.6 L574.2,354.9 L584.1,378.6 L586.6,388.4 L586.5,388.7Z" fill="#e6ab02"><title>Screven - East Georgia</title></path>
<path d="M115.9,646.8 L118.5,646.9 L118.8,647.0 L128.8,647.3 L153.8,647.8 L150.5,676.2 L136.5,703.1 L136.4,703.1 L132.3,697.1 L126.3,675.8 L124.0,672.3 L120.9,668.5 L118.9,662.9 L118.4,658.4 L118.8,656.4 L115.9,646.8Z" fill="#a6761d"><title>Seminole - South Georgia</title></path>
<path d="M183.5,315.1 L183.8,313.2 L182.6,311.4 L184.1,309.5 L192.5,309.7 L198.4,294.8 L202.8,294.8 L229.3,297.4 L235.5,303.2 L232.8,318.0 L216.6,320.1 L190.1,317.0 L184.2,320.9 L184.7,318.4 L183.5,315.1Z" fill="#66a61e"><title>Spalding - Central Georgia</title></path>
<path d="M335.0,88.4 L341.0,93.7 L347.7,98.2 L347.7,98.2 L357.2,101.9 L356.8,102.1 L356.8,103.1 L365.1,112.2 L355.9,121.0 L327.2,123.5 L325.2,122.4 L319.2,120.3 L335.0,88.4Z" fill="#7570b3"><title>Stephens - Northeast Georgia</title></path>
<path d="M128.7,468.1 L163.1,467.9 L164.4,467.9 L163.5,516.2 L130.8,515.6 L110.6,505.2 L112.2,500.2 L111.5,494.2 L112.5,482.0 L119.3,475.3 L123.3,473.8 L128.7,468.1Z" fill="#a6761d"><title>Stewart - South Georgia</title></path>
<path d="M192.9,478.2 L225.0,479.4 L225.2,468.4 L245.2,477.5 L253.9,499.2 L259.0,517.9 L204.9,516.9 L204.9,523.5 L191.1,508.9 L192.8,483.2 L192.9,478.2Z" fill="#a6761d"><title>Sumter - South Georgia</title></path>
<path d="M191.1,417.0 L165.9,421.2 L164.4,421.2 L163.2,422.2 L162.8,422.1 L160.6,423.7 L159.6,423.6 L158.5,423.7 L158.5,413.6 L157.7,373.3 L174.6,373.3 L182.9,367.6 L198.0,382.3 L211.6,388.3 L204.9,392.5 L195.7,417.0 L191.1,417.0Z" fill="#e7298a"><title>Talbot - West Georgia</title></path>
<path d="M420.6,256.6 L411.4,270.4 L403.0,268.7 L398.3,280.7 L377.3,276.8 L377.2,259.6 L385.4,247.6 L379.6,242.1 L380.4,240.1 L385.6,235.9 L393.2,251.5 L403.3,247.9 L420.6,256.6Z" fill="#66a61e"><title>Taliaferro - Central Georgia</title></path>
<path d="M540.1,496.5 L533.9,500.9 L532.0,501.6 L513.2,536.5 L511.5,537.2 L508.2,534.8 L507.2,531.5 L505.4,532.4 L502.8,530.6 L490.5,519.5 L479.8,517.4 L485.4,478.3 L478.8,454.6 L505.8,460.8 L511.7,491.3 L540.1,496.5Z" fill="#e6ab02"><title>Tattnall - East Georgia</title></path>
<path d="M215.7,446.4 L197.8,439.9 L191.1,417.0 L195.7,417.0 L204.9,392.5 L211.6,388.3 L222.5,397.2 L235.2,399.8 L248.4,422.0 L248.7,423.4 L247.8,423.2 L233.0,425.7 L215.7,446.4Z" fill="#e7298a"><title>Taylor - West Georgia</title></path>
<path d="M379.6,537.8 L355.9,527.4 L352.2,519.3 L386.5,484.7 L384.8,483.0 L387.5,480.2 L388.4,483.0 L393.6,491.6 L414.2,502.8 L425.1,516.5 L400.3,532.3 L396.8,537.5 L379.6,537.8Z" fill="#66a61e"><title>Telfair - Central Georgia</title></path>
<path d="M210.1,562.4 L190.3,562.4 L190.3,562.5 L177.7,562.5 L179.2,553.1 L170.4,539.2 L170.8,516.3 L189.9,516.4 L191.1,508.9 L204.9,523.5 L211.6,536.2 L210.1,562.4Z" fill="#a6761d"><title>Terrell - South Georgia</title></path>
<path d="M238.0,708.6 L238.9,671.6 L233.4,661.5 L233.7,646.5 L248.3,646.6 L248.4,646.6 L248.4,652.1 L283.2,652.7 L282.2,711.3 L273.5,710.8 L272.2,710.7 L267.7,710.4 L264.5,710.2 L264.4,710.2 L247.9,709.2 L247.9,709.2 L243.7,708.9 L243.4,708.9 L242.8,708.9 L241.4,708.8 L238.0,708.6Z" fill="#a6761d"><title>Thomas - South Georgia</title></path>
<path d="M334.9,584.9 L322.5,604.3 L319.1,608.1 L312.3,607.9 L293.9,607.4 L294.5,570.7 L294.6,566.3 L313.8,566.7 L334.9,584.9Z" fill="#a6761d"><title>Tift - South Georgia</title></path>
<path d="M453.0,509.1 L452.0,508.9 L451.3,508.9 L450.3,509.4 L449.5,509.5 L446.7,508.3 L446.3,508.7 L455.9,449.2 L455.9,449.2 L455.9,449.2 L455.9,449.2 L463.0,458.7 L478.8,454.6 L485.4,478.3 L479.8,517.4 L453.0,509.1Z" fill="#e6ab02"><title>Toombs - East Georgia</title></path>
<path d="M277.4,72.1 L272.4,53.5 L259.9,51.4 L257.1,42.1 L291.3,42.1 L298.3,41.3 L307.5,41.3 L293.5,58.9 L294.1,67.5 L293.4,68.9 L292.2,70.0 L290.3,70.9 L289.8,70.9 L288.8,71.5 L288.4,72.0 L287.7,72.2 L287.4,72.4 L286.9,72.3 L286.4,72.5 L286.1,72.1 L285.2,71.6 L285.0,71.5 L284.4,71.4 L283.2,71.0 L282.3,70.9 L277.4,72.1Z" fill="#1b9e77"><title>Towns - North Georgia</title></path>
<path d="M455.9,449.2 L455.9,449.2 L455.9,449.2 L455.9,449.2 L423.8,457.9 L415.2,456.1 L413.2,451.7 L424.8,424.7 L445.5,427.9 L459.4,435.8 L455.9,449.2Z" fill="#e6ab02"><title>Treutlen - East Georgia</title></path>
<path d="M88.0,329.3 L126.7,314.6 L136.7,319.8 L136.7,369.0 L94.8,369.3 L89.9,340.7 L89.7,339.6 L88.5,332.6 L88.0,329.3Z" fill="#e7298a"><title>Troup - West Georgia</title></path>
<path d="M316.5,527.5 L320.0,541.3 L313.8,566.7 L294.6,566.3 L294.5,570.7 L276.6,562.2 L274.6,534.3 L299.3,534.2 L299.3,526.5 L316.5,527.5Z" fill="#a6761d"><title>Turner - South Georgia</title></path>
<path d="M326.0,365.1 L349.5,413.6 L314.2,434.0 L305.3,401.8 L301.2,401.2 L313.6,380.1 L312.2,373.3 L326.0,365.1 L326.0,365.1Z" fill="#66a61e"><title>Twiggs - Central Georgia</title></path>
<path d="M248.2,42.1 L257.1,42.1 L257.1,42.1 L259.9,51.4 L272.4,53.5 L277.4,72.1 L267.5,83.1 L256.8,80.2 L244.1,95.5 L228.3,94.5 L236.7,70.8 L234.9,57.6 L225.6,48.4 L232.0,42.1 L245.0,42.1 L246.1,42.1 L248.2,42.1Z" fill="#1b9e77"><title>Union - North Georgia</title></path>
<path d="M222.5,397.2 L211.6,388.3 L198.0,382.3 L182.9,367.6 L180.3,353.9 L185.1,350.3 L213.7,350.7 L233.0,350.9 L232.8,359.8 L232.7,372.6 L222.5,397.2Z" fill="#66a61e"><title>Upson - Central Georgia</title></path>
<path d="M109.7,103.9 L104.7,103.9 L50.2,103.7 L49.2,98.3 L60.1,77.3 L60.1,66.1 L71.4,42.7 L78.6,42.5 L79.0,42.5 L79.5,42.5 L80.4,42.5 L82.6,42.4 L82.9,42.4 L84.3,42.4 L84.3,62.6 L92.4,62.6 L92.5,74.9 L99.9,76.0 L96.8,83.4 L112.1,83.4 L112.2,98.5 L111.6,98.5 L111.6,98.5 L110.9,98.5 L110.9,103.9 L109.7,103.9Z" fill="#1b9e77"><title>Walker - North Georgia</title></path>
<path d="M260.0,234.3 L254.9,230.6 L254.8,230.4 L251.2,227.8 L275.0,205.6 L279.6,210.7 L294.8,209.2 L313.2,222.9 L290.4,257.0 L277.8,247.5 L260.0,234.3Z" fill="#66a61e"><title>Walton - Central Georgia</title></path>
<path d="M472.1,623.8 L482.0,632.1 L482.0,645.4 L492.0,656.9 L455.0,656.4 L454.4,690.2 L489.6,691.9 L481.2,725.5 L476.6,724.9 L475.5,724.7 L471.7,724.5 L460.3,723.6 L454.6,723.2 L452.4,686.3 L444.7,686.4 L445.3,664.2 L432.1,655.7 L421.7,630.1 L418.1,615.5 L427.2,616.0 L427.3,602.2 L427.4,586.0 L431.4,586.0 L444.7,586.1 L454.8,594.0 L459.2,613.5 L472.1,623.8Z" fill="#e6ab02"><title>Ware - East Georgia</title></path>
<path d="M459.2,301.1 L452.9,306.8 L436.3,298.7 L410.8,310.1 L398.3,280.7 L403.0,268.7 L411.4,270.4 L420.6,256.6 L421.9,255.9 L423.4,256.1 L423.7,257.0 L424.3,257.1 L423.8,255.5 L424.2,254.8 L424.6,255.2 L437.6,294.0 L459.2,301.1Z" fill="#66a61e"><title>Warren - Central Georgia</title></path>
<path d="M423.0,329.8 L437.5,346.3 L442.7,362.0 L441.3,376.8 L409.1,385.0 L404.7,378.7 L385.9,386.5 L369.4,357.6 L372.2,336.8 L393.5,327.9 L397.9,318.9 L411.8,312.5 L423.0,329.8Z" fill="#66a61e"><title>Washington - Central Georgia</title></path>
<path d="M513.2,536.5 L528.6,555.3 L553.0,575.2 L558.0,588.5 L549.2,596.6 L544.0,607.5 L535.0,602.3 L519.1,605.0 L503.8,600.7 L502.3,588.2 L491.8,585.7 L491.8,538.9 L502.8,530.6 L505.4,532.4 L507.2,531.5 L508.2,534.8 L511.5,537.2 L513.2,536.5Z" fill="#e6ab02"><title>Wayne - East Georgia</title></path>
<path d="M163.5,516.2 L164.4,467.9 L180.3,483.1 L192.8,483.2 L191.1,508.9 L189.9,516.4 L170.8,516.3 L163.5,516.2Z" fill="#a6761d"><title>Webster - South Georgia</title></path>
<path d="M423.8,457.9 L429.4,478.9 L431.3,501.7 L438.4,510.3 L425.1,516.5 L414.2,502.8 L393.6,491.6 L388.4,483.0 L395.7,475.7 L394.0,473.6 L415.2,456.1 L423.8,457.9Z" fill="#66a61e"><title>Wheeler - Central Georgia</title></path>
<path d="M267.5,83.1 L277.4,72.1 L282.3,70.9 L283.2,71.0 L284.4,71.4 L285.0,71.5 L285.2,71.6 L286.1,72.1 L286.4,72.5 L286.9,72.3 L287.4,72.4 L287.7,72.2 L288.4,72.0 L288.8,71.5 L289.8,70.9 L290.3,70.9 L297.9,81.5 L292.7,92.7 L298.9,109.2 L292.3,116.9 L269.3,116.6 L264.8,97.4 L267.5,83.1Z" fill="#1b9e77"><title>White - North Georgia</title></path>
<path d="M121.4,42.0 L121.7,42.0 L124.5,42.0 L126.0,42.0 L126.6,42.0 L136.8,42.0 L137.2,42.0 L140.6,42.0 L141.6,42.0 L142.1,42.0 L142.5,42.0 L143.4,42.0 L143.4,42.0 L142.3,59.1 L134.6,74.2 L136.3,85.4 L127.4,85.4 L130.0,96.7 L112.2,98.5 L112.1,83.4 L96.8,83.4 L99.9,76.0 L110.7,68.0 L121.4,42.0Z" fill="#1b9e77"><title>Whitfield - North Georgia</title></path>
<path d="M355.9,527.4 L316.5,527.5 L299.3,526.5 L299.7,499.6 L299.8,485.9 L299.8,485.6 L335.1,487.5 L341.0,506.3 L352.2,519.3 L355.9,527.4Z" fill="#a6761d"><title>Wilcox - South Georgia</title></path>
<path d="M425.1,197.2 L431.9,221.4 L446.7,250.4 L424.6,255.2 L424.2,254.8 L423.8,255.5 L424.3,257.1 L423.7,257.0 L423.4,256.1 L421.9,255.9 L420.6,256.6 L403.3,247.9 L393.2,251.5 L385.6,235.9 L380.7,228.6 L395.3,206.8 L407.7,199.2 L425.1,197.2Z" fill="#e6ab02"><title>Wilkes - East Georgia</title></path>
<path d="M332.5,360.7 L358.2,348.9 L369.4,357.6 L385.9,386.5 L386.0,389.3 L384.6,394.4 L384.5,394.4 L349.5,413.6 L326.0,365.1 L326.1,365.0 L332.5,360.7Z" fill="#66a61e"><title>Wilkinson - Central Georgia</title></path>
<path d="M256.8,527.4 L274.6,534.3 L276.6,562.2 L294.5,570.7 L293.9,607.4 L248.9,606.7 L249.2,589.9 L249.2,587.0 L251.1,586.9 L246.5,558.0 L244.7,547.7 L256.8,527.4Z" fill="#a6761d"><title>Worth - South Georgia</title></path>
</g>
<rect x="680" y="40" width="14" height="14" fill="#1b9e77" stroke="#fff" stroke-width="0.5"/><text x="702" y="52">North Georgia</text>
<rect x="680" y="62" width="14" height="14" fill="#7570b3" stroke="#fff" stroke-width="0.5"/><text x="702" y="74">Northeast Georgia</text>
<rect x="680" y="84" width="14" height="14" fill="#d95f02" stroke="#fff" stroke-width="0.5"/><text x="702" y="96">Metro Atlanta</text>
<rect x="680" y="106" width="14" height="14" fill="#e7298a" stroke="#fff" stroke-width="0.5"/><text x="702" y="118">West Georgia</text>
<rect x="680" y="128" width="14" height="14" fill="#66a61e" stroke="#fff" stroke-width="0.5"/><text x="702" y="140">Central Georgia</text>
<rect x="680" y="150" width="14" height="14" fill="#e6ab02" stroke="#fff" stroke-width="0.5"/><text x="702" y="162">East Georgia</text>
<rect x="680" y="172" width="14" height="14" fill="#1f78b4" stroke="#fff" stroke-width="0.5"/><text x="702" y="184">Coastal Georgia</text>
<rect x="680" y="194" width="14" height="14" fill="#a6761d" stroke="#fff" stroke-width="0.5"/><text x="702" y="206">South Georgia</text>
</g>
<g transform="translate(0,798)">
<text x="40" y="26" font-size="18" font-weight="bold">Regions</text>
<g stroke="#fff" stroke-width="0.6" stroke-linejoin="round">
<path d="M441.3,548.6 L441.4,528.9 L453.0,529.0 L453.0,509.1 L479.8,517.4 L490.5,519.5 L502.8,530.6 L491.8,538.9 L491.8,585.7 L479.6,576.5 L441.3,548.6Z" fill="#911eb4"><title>Appling - East Sandhills</title></path>
<path d="M382.7,630.1 L372.9,630.1 L374.6,616.0 L360.7,593.5 L399.3,596.2 L402.7,602.2 L427.3,602.2 L427.2,616.0 L418.1,615.5 L421.7,630.1 L382.7,630.1Z" fill="#911eb4"><title>Atkinson - East Sandhills</title></path>
<path d="M441.3,548.6 L479.6,576.5 L464.3,592.0 L454.8,594.0 L444.7,586.1 L431.4,586.0 L427.5,554.5 L441.3,554.5 L441.3,548.6Z" fill="#911eb4"><title>Bacon - East Sandhills</title></path>
<path d="M165.9,591.4 L192.9,591.0 L230.5,590.5 L222.8,603.5 L204.6,611.3 L196.3,627.7 L186.0,634.5 L182.8,646.4 L178.3,646.3 L179.0,618.9 L165.4,618.5 L165.9,591.4Z" fill="#9A6324"><title>Baker - Southwest Georgia</title></path>
<path d="M358.2,348.9 L332.5,360.7 L329.5,349.6 L325.0,331.9 L323.2,320.7 L343.3,320.4 L366.3,325.9 L365.9,341.6 L372.2,336.8 L369.4,357.6 L358.2,348.9Z" fill="#bfef45"><title>Baldwin - Macon Area</title></path>
<path d="M332.8,160.1 L330.5,162.9 L326.9,163.7 L326.6,164.2 L316.5,154.2 L298.3,149.1 L291.9,138.0 L298.9,128.0 L309.1,118.7 L319.2,120.3 L325.2,122.4 L327.2,123.5 L327.7,144.5 L332.8,160.1Z" fill="#e6194B"><title>Banks - Upper Piedmont Lakes</title></path>
<path d="M294.8,209.2 L279.6,210.7 L275.0,205.6 L265.9,194.0 L272.6,175.0 L279.1,184.4 L305.7,189.8 L309.1,200.0 L294.8,209.2Z" fill="#e6194B"><title>Barrow - Upper Piedmont Lakes</title></path>
<path d="M118.0,134.0 L136.6,133.4 L163.9,130.9 L163.1,182.7 L161.3,182.6 L161.2,182.6 L161.0,182.6 L160.9,182.6 L160.0,182.6 L159.8,182.6 L159.4,182.6 L154.9,182.5 L154.8,182.5 L154.0,182.5 L152.9,182.4 L128.8,182.0 L112.6,179.8 L118.0,134.0Z" fill="#42d4f4"><title>Bartow - North Georgia Mountains</title></path>
<path d="M355.9,527.4 L379.6,537.8 L379.2,554.4 L356.0,553.6 L355.9,557.8 L336.6,553.3 L336.7,541.5 L320.0,541.3 L316.5,527.5 L355.9,527.4Z" fill="#000075"><title>Ben Hill - West Sandhills &amp; Fall Line</title></path>
<path d="M353.2,654.6 L343.4,654.4 L342.5,654.4 L340.6,654.3 L339.2,632.7 L322.5,604.3 L334.9,584.9 L360.0,585.5 L360.1,585.5 L360.0,586.0 L359.4,587.0 L359.4,587.9 L360.1,588.2 L361.0,590.3 L360.9,591.0 L361.3,592.0 L360.9,592.4 L360.7,593.5 L374.6,616.0 L372.9,630.1 L374.0,635.8 L357.5,635.8 L353.2,654.6Z" fill="#9A6324"><title>Berrien - Southwest Georgia</title></path>
<path d="M286.5,356.6 L293.3,366.6 L312.2,373.3 L313.6,380.1 L301.2,401.2 L287.8,396.9 L271.7,389.2 L262.9,372.8 L286.5,356.6Z" fill="#bfef45"><title>Bibb - Macon Area</title></path>
<path d="M349.5,413.6 L360.9,438.5 L356.5,434.0 L339.3,451.0 L333.9,461.8 L314.2,441.8 L316.2,438.3 L314.2,434.0 L349.5,413.6Z" fill="#000075"><title>Bleckley - West Sandhills &amp; Fall Line</title></path>
<path d="M517.5,651.1 L501.2,646.8 L492.0,656.9 L482.0,645.4 L482.0,632.1 L472.1,623.8 L483.8,626.4 L496.1,615.7 L508.2,615.7 L503.8,600.7 L519.1,605.0 L535.0,602.3 L544.0,607.5 L539.5,632.3 L517.5,651.1Z" fill="#911eb4"><title>Brantley - East Sandhills</title></path>
<path d="M304.2,646.4 L317.1,653.6 L316.9,653.7 L317.3,653.7 L317.4,654.1 L317.5,653.9 L317.7,654.1 L318.1,654.1 L317.6,654.4 L317.7,654.8 L318.1,655.2 L318.4,655.7 L318.3,656.4 L318.6,656.8 L318.7,657.6 L319.0,657.6 L319.1,658.1 L319.4,658.4 L332.3,683.8 L320.5,686.7 L316.2,696.1 L332.5,714.6 L329.6,714.4 L328.2,714.3 L323.1,713.9 L323.1,713.9 L321.7,713.9 L320.6,713.8 L299.4,712.4 L299.4,712.4 L291.3,711.9 L290.9,711.9 L282.2,711.3 L283.2,652.7 L304.3,653.3 L304.2,646.4Z" fill="#9A6324"><title>Brooks - Southwest Georgia</title></path>
<path d="M588.3,489.1 L597.2,500.8 L602.1,512.7 L621.2,526.2 L616.2,532.3 L619.1,546.2 L618.3,545.9 L614.2,545.2 L613.4,546.3 L592.9,532.5 L586.2,512.5 L577.3,507.9 L562.0,508.3 L560.6,502.2 L545.7,490.1 L537.6,480.3 L582.5,466.6 L588.3,489.1Z" fill="#00ffff"><title>Bryan - Mid-Coast Georgia</title></path>
<path d="M537.6,480.3 L533.0,467.2 L513.2,462.4 L519.7,439.7 L505.2,420.6 L505.6,418.1 L509.0,410.1 L529.8,403.6 L549.5,419.5 L567.9,428.3 L568.6,439.4 L582.5,466.6 L537.6,480.3Z" fill="#911eb4"><title>Bulloch - East Sandhills</title></path>
<path d="M528.4,311.1 L538.8,321.5 L548.6,331.3 L558.5,334.6 L559.1,335.0 L568.7,342.3 L539.4,363.3 L527.6,356.4 L498.5,362.2 L490.3,378.3 L467.9,374.7 L473.7,358.9 L471.2,339.6 L478.9,313.6 L474.3,308.0 L486.5,303.4 L497.7,313.7 L528.4,311.1Z" fill="#e6beff"><title>Burke - Upper Savannah</title></path>
<path d="M266.7,292.4 L273.1,311.9 L272.0,321.5 L243.5,318.0 L232.8,318.0 L235.5,303.2 L243.3,297.8 L243.1,297.8 L243.1,297.7 L258.8,280.6 L266.7,292.4Z" fill="#660033"><title>Butts - South Atlanta Piedmont</title></path>
<path d="M177.7,562.5 L190.3,562.5 L190.3,562.4 L192.9,591.0 L165.9,591.4 L146.2,591.1 L142.2,581.0 L142.5,562.7 L177.7,562.5Z" fill="#9A6324"><title>Calhoun - Southwest Georgia</title></path>
<path d="M521.4,686.0 L523.2,664.6 L517.5,651.1 L539.5,632.3 L564.7,643.5 L581.6,655.9 L580.5,656.1 L579.7,656.9 L579.5,657.6 L578.2,659.1 L575.4,660.8 L575.0,662.0 L575.9,663.2 L577.3,663.8 L577.8,663.2 L578.5,663.0 L580.2,663.8 L581.0,665.2 L583.7,665.2 L584.6,662.5 L585.1,662.0 L586.1,662.0 L586.8,665.0 L586.5,672.7 L583.5,683.8 L583.2,684.6 L582.0,686.1 L581.1,687.8 L580.0,690.8 L579.4,694.1 L579.3,696.6 L579.5,698.4 L580.8,702.5 L581.5,703.4 L568.4,702.9 L560.4,702.1 L558.0,699.3 L556.3,699.7 L545.6,698.0 L543.9,697.2 L542.8,695.2 L540.4,693.9 L534.3,691.0 L531.6,691.1 L529.9,691.5 L526.2,690.6 L521.4,686.0Z" fill="#00ffff"><title>Camden - Mid-Coast Georgia</title></path>
<path d="M513.2,462.4 L509.1,461.2 L505.8,460.8 L478.8,454.6 L476.2,449.3 L489.8,423.5 L505.2,420.6 L519.7,439.7 L513.2,462.4Z" fill="#911eb4"><title>Candler - East Sandhills</title></path>
<path d="M74.8,248.3 L112.1,238.8 L113.8,223.8 L129.3,227.8 L131.5,228.6 L131.4,247.1 L131.0,260.7 L143.6,260.6 L138.2,270.2 L116.7,283.5 L80.5,283.1 L79.1,274.7 L77.9,267.4 L77.9,267.3 L77.8,266.5 L76.8,260.6 L74.8,248.3Z" fill="#469990"><title>Carroll - West Central Piedmont</title></path>
<path d="M99.9,76.0 L92.5,74.9 L92.4,62.6 L84.3,62.6 L84.3,42.4 L85.6,42.4 L88.1,42.4 L88.8,42.4 L89.9,42.4 L90.0,42.3 L90.4,42.3 L90.6,42.3 L94.6,42.3 L95.3,42.3 L112.9,42.1 L112.9,42.2 L121.4,42.0 L110.7,68.0 L99.9,76.0Z" fill="#42d4f4"><title>Catoosa - North Georgia Mountains</title></path>
<path d="M492.0,656.9 L501.2,646.8 L517.5,651.1 L523.2,664.6 L521.4,686.0 L509.1,691.2 L506.1,692.2 L502.6,708.6 L502.7,711.8 L504.2,715.2 L507.4,721.0 L508.4,726.0 L506.9,732.8 L507.0,736.2 L502.6,757.1 L502.6,757.1 L492.9,756.4 L487.6,757.8 L486.8,757.5 L484.5,754.9 L482.6,751.1 L481.8,747.5 L482.3,742.7 L481.5,735.9 L481.2,725.5 L481.2,725.5 L489.6,691.9 L454.4,690.2 L455.0,656.4 L492.0,656.9Z" fill="#911eb4"><title>Charlton - East Sandhills</title></path>
<path d="M638.7,492.7 L654.1,498.6 L657.6,500.3 L658.5,499.8 L659.7,500.2 L660.0,502.2 L659.8,503.5 L659.0,505.7 L657.1,508.7 L654.5,510.2 L652.6,511.8 L650.8,512.6 L648.5,512.4 L648.3,510.6 L646.0,510.5 L642.8,513.0 L642.4,515.7 L643.4,516.9 L645.2,517.6 L646.9,517.4 L647.8,518.0 L646.1,520.0 L643.0,522.8 L640.2,525.9 L639.2,526.1 L637.4,524.4 L633.8,523.1 L630.8,522.9 L631.6,525.9 L631.6,527.1 L631.1,527.9 L629.3,529.2 L629.4,530.3 L631.8,531.3 L632.6,531.4 L633.0,531.0 L634.1,531.3 L634.4,531.8 L634.5,532.9 L633.1,534.4 L630.4,539.7 L629.2,540.8 L626.6,542.1 L622.3,546.8 L621.2,547.1 L619.1,546.2 L616.2,532.3 L621.2,526.2 L602.1,512.7 L597.2,500.8 L588.3,489.1 L613.8,467.2 L622.9,468.8 L623.4,478.9 L624.0,485.7 L624.5,486.4 L631.2,490.3 L633.7,490.8 L638.7,492.7Z" fill="#a9a9a9"><title>Chatham - Chatham-Effingham Coast</title></path>
<path d="M128.7,468.1 L128.9,467.8 L130.6,463.2 L129.6,460.4 L126.7,457.4 L118.5,454.1 L117.8,453.1 L117.7,451.9 L120.4,445.0 L120.4,444.9 L138.4,439.8 L139.0,440.0 L140.3,440.0 L141.7,439.9 L142.9,439.8 L143.3,439.2 L143.5,438.8 L144.1,439.2 L144.9,439.6 L145.9,439.8 L146.3,439.3 L147.0,438.7 L147.2,438.5 L147.6,438.5 L148.1,438.7 L148.8,438.6 L158.5,423.7 L159.6,423.6 L160.6,423.7 L162.8,422.1 L163.2,422.2 L164.4,421.2 L165.9,421.2 L163.3,427.4 L163.1,467.9 L128.7,468.1Z" fill="#f032e6"><title>Chattahoochee - Columbus-Fall Line</title></path>
<path d="M51.9,113.7 L51.9,113.7 L51.9,113.5 L50.2,103.7 L104.7,103.9 L95.3,127.3 L75.2,137.6 L68.3,150.5 L58.6,150.4 L53.4,121.4 L53.4,121.4 L52.6,117.2 L52.1,114.6 L51.9,113.7Z" fill="#42d4f4"><title>Chattooga - North Georgia Mountains</title></path>
<path d="M215.3,142.9 L215.2,166.0 L206.2,165.9 L194.4,183.4 L180.9,183.1 L163.1,182.7 L163.9,130.9 L173.1,135.7 L215.4,135.8 L215.3,136.7 L215.3,137.1 L215.3,142.9Z" fill="#4363d8"><title>Cherokee - Cherokee County</title></path>
<path d="M332.2,188.4 L345.4,194.9 L347.7,209.5 L343.1,218.2 L309.1,200.0 L332.2,188.4Z" fill="#fabed4"><title>Clarke - Athens Area</title></path>
<path d="M142.5,562.7 L142.2,581.0 L114.9,583.4 L112.7,578.5 L113.4,574.9 L111.3,562.9 L111.0,562.4 L110.3,562.0 L107.4,559.4 L102.4,551.1 L102.3,547.7 L102.8,546.8 L103.3,545.2 L102.5,540.5 L102.5,539.9 L101.7,539.1 L100.7,537.9 L124.1,538.3 L126.2,562.9 L142.5,562.7Z" fill="#9A6324"><title>Clay - Southwest Georgia</title></path>
<path d="M198.4,294.8 L199.2,277.7 L189.2,264.1 L189.2,263.3 L189.2,262.8 L189.2,261.8 L189.2,260.9 L189.2,260.8 L189.2,258.7 L189.2,255.2 L189.3,249.0 L201.3,249.2 L202.0,249.1 L203.3,249.1 L212.1,249.3 L212.3,249.2 L212.0,271.6 L202.9,281.9 L202.8,294.8 L198.4,294.8Z" fill="#660033"><title>Clayton - South Atlanta Piedmont</title></path>
<path d="M449.3,722.8 L440.8,722.2 L439.3,722.1 L438.2,722.0 L437.1,721.9 L435.5,721.8 L435.1,721.7 L433.1,721.6 L430.5,702.8 L409.4,699.9 L399.0,684.0 L382.7,678.7 L382.7,630.1 L421.7,630.1 L432.1,655.7 L445.3,664.2 L444.7,686.4 L452.4,686.3 L454.6,723.2 L449.3,722.8 L449.3,722.8Z" fill="#911eb4"><title>Clinch - East Sandhills</title></path>
<path d="M154.6,213.0 L152.9,182.4 L154.0,182.5 L154.8,182.5 L154.9,182.5 L159.4,182.6 L159.8,182.6 L160.0,182.6 L160.9,182.6 L161.0,182.6 L161.2,182.6 L161.3,182.6 L163.1,182.7 L180.9,183.1 L194.4,183.4 L199.0,200.3 L191.3,209.9 L186.4,223.0 L173.6,234.4 L168.2,224.9 L154.6,224.7 L154.7,223.3 L154.5,223.0 L154.5,222.6 L154.6,213.0Z" fill="#ffe119"><title>Cobb - Cobb County</title></path>
<path d="M427.5,554.5 L431.4,586.0 L427.4,586.0 L427.3,602.2 L402.7,602.2 L399.3,596.2 L360.7,593.5 L360.9,592.4 L361.3,592.0 L360.9,591.0 L361.0,590.3 L360.1,588.2 L359.4,587.9 L359.4,587.0 L360.0,586.0 L360.1,585.5 L379.2,554.4 L379.6,537.8 L396.8,537.5 L400.3,532.3 L400.3,554.7 L427.5,554.5Z" fill="#911eb4"><title>Coffee - East Sandhills</title></path>
<path d="M248.9,606.7 L293.9,607.4 L312.3,607.9 L312.7,626.6 L304.2,646.4 L304.3,653.3 L283.2,652.7 L248.4,652.1 L248.4,646.6 L248.9,606.7Z" fill="#9A6324"><title>Colquitt - Southwest Georgia</title></path>
<path d="M493.9,258.1 L496.3,258.7 L500.1,260.4 L503.1,262.1 L505.5,265.1 L470.8,294.5 L452.3,264.3 L453.8,248.7 L469.3,241.0 L480.7,243.2 L483.5,251.8 L485.7,254.1 L491.6,257.9 L492.3,258.1 L492.9,257.9 L493.9,258.1Z" fill="#f58231"><title>Columbia - Augusta Area</title></path>
<path d="M340.6,654.3 L317.1,653.6 L304.2,646.4 L312.7,626.6 L312.3,607.9 L319.1,608.1 L322.5,604.3 L339.2,632.7 L340.6,654.3Z" fill="#9A6324"><title>Cook - Southwest Georgia</title></path>
<path d="M126.7,314.6 L116.7,283.5 L138.2,270.2 L169.6,271.6 L167.3,281.3 L184.1,309.5 L182.6,311.4 L183.8,313.2 L183.5,315.1 L138.0,314.7 L136.7,319.8 L126.7,314.6Z" fill="#469990"><title>Coweta - West Central Piedmont</title></path>
<path d="M287.8,397.0 L279.2,396.8 L248.4,422.0 L235.2,399.8 L222.5,397.2 L232.7,372.6 L262.9,372.8 L271.7,389.2 L287.8,396.9 L287.8,397.0Z" fill="#bfef45"><title>Crawford - Macon Area</title></path>
<path d="M253.9,499.2 L299.7,499.6 L299.3,526.5 L299.3,534.2 L274.6,534.3 L256.8,527.4 L256.9,527.2 L257.0,526.4 L257.1,525.9 L257.7,525.7 L258.4,525.0 L258.2,523.7 L257.8,522.9 L257.5,522.3 L257.7,521.7 L258.2,521.4 L257.7,520.3 L257.7,519.6 L258.3,518.7 L258.6,518.5 L259.0,517.9 L253.9,499.2Z" fill="#9A6324"><title>Crisp - Southwest Georgia</title></path>
<path d="M40.0,42.5 L57.0,42.6 L71.4,42.7 L60.1,66.1 L60.1,77.3 L49.2,98.3 L48.3,93.2 L48.3,93.2 L46.9,85.2 L46.9,85.2 L42.9,61.7 L41.3,51.8 L41.3,51.8 L40.0,42.5Z" fill="#42d4f4"><title>Dade - North Georgia Mountains</title></path>
<path d="M215.3,142.9 L215.3,137.1 L215.3,136.7 L215.4,135.8 L215.4,122.5 L207.3,122.4 L203.9,107.7 L215.7,106.9 L223.3,99.2 L224.3,100.7 L224.3,101.5 L224.0,111.4 L235.6,122.9 L251.4,130.0 L254.5,143.1 L215.3,142.9Z" fill="#42d4f4"><title>Dawson - North Georgia Mountains</title></path>
<path d="M215.8,249.3 L212.3,249.2 L212.1,249.3 L203.3,249.1 L203.4,246.7 L203.5,217.5 L203.6,216.7 L203.6,216.4 L203.5,216.1 L203.6,215.6 L203.5,215.1 L203.6,213.4 L203.5,213.0 L203.6,211.3 L203.6,209.4 L203.6,207.3 L203.6,207.3 L203.6,206.0 L203.6,204.3 L212.9,201.3 L213.0,201.8 L213.5,201.5 L214.2,202.8 L213.5,203.2 L214.3,205.1 L215.2,207.3 L215.6,208.0 L216.3,208.5 L218.7,209.9 L220.7,212.5 L222.2,213.7 L222.4,214.4 L224.5,215.5 L225.5,215.7 L226.5,216.7 L245.8,232.9 L241.5,237.0 L235.3,251.0 L224.9,249.4 L219.7,249.4 L219.7,251.8 L216.9,251.8 L215.8,249.3Z" fill="#fffac8"><title>DeKalb - DeKalb County</title></path>
<path d="M182.8,646.4 L199.9,646.3 L199.3,706.5 L179.3,705.4 L178.7,705.4 L170.0,704.9 L170.0,704.9 L136.5,703.1 L150.5,676.2 L153.8,647.8 L178.3,646.3 L182.8,646.4Z" fill="#9A6324"><title>Decatur - Southwest Georgia</title></path>
<path d="M333.9,461.8 L339.3,451.0 L356.5,434.0 L360.9,438.5 L380.2,481.1 L394.0,473.6 L395.7,475.7 L388.4,483.0 L387.5,480.2 L384.8,483.0 L386.5,484.7 L352.2,519.3 L341.0,506.3 L335.1,487.5 L341.1,476.3 L333.9,461.8Z" fill="#000075"><title>Dodge - West Sandhills &amp; Fall Line</title></path>
<path d="M245.2,477.5 L253.4,465.6 L268.6,458.9 L298.9,459.3 L299.8,485.6 L299.8,485.9 L299.7,499.6 L253.9,499.2 L245.2,477.5Z" fill="#9A6324"><title>Dooly - Southwest Georgia</title></path>
<path d="M190.3,562.4 L210.1,562.4 L243.3,562.1 L246.5,558.0 L251.1,586.9 L249.2,587.0 L249.2,589.9 L230.5,590.5 L192.9,591.0 L190.3,562.4Z" fill="#9A6324"><title>Dougherty - Southwest Georgia</title></path>
<path d="M148.7,228.0 L152.4,227.4 L154.5,227.4 L154.6,227.0 L154.6,224.7 L168.2,224.9 L173.6,234.4 L172.5,236.6 L171.5,236.6 L170.6,237.3 L169.8,239.1 L168.0,240.4 L166.6,241.0 L166.9,242.2 L150.9,251.9 L149.6,254.4 L147.9,255.1 L144.0,258.7 L143.6,260.6 L131.0,260.7 L131.4,247.1 L131.5,228.6 L134.5,229.5 L140.5,229.3 L140.5,229.0 L144.8,228.7 L145.4,228.8 L145.8,228.5 L148.7,228.0Z" fill="#469990"><title>Douglas - West Central Piedmont</title></path>
<path d="M112.7,578.5 L114.9,583.4 L142.2,581.0 L146.2,591.1 L165.9,591.4 L165.4,618.5 L129.5,618.9 L128.8,647.3 L118.8,647.0 L118.5,646.9 L115.9,646.8 L114.9,643.6 L114.1,641.8 L108.8,634.3 L107.9,633.8 L106.8,633.7 L105.7,632.9 L104.8,629.7 L104.2,618.6 L105.5,614.7 L107.3,610.8 L109.9,592.4 L112.7,578.5Z" fill="#9A6324"><title>Early - Southwest Georgia</title></path>
<path d="M361.2,716.6 L361.3,693.3 L367.5,681.9 L376.5,681.8 L377.2,682.5 L378.1,680.2 L379.8,680.0 L381.3,678.3 L382.7,678.7 L399.0,684.0 L409.4,699.9 L430.5,702.8 L433.1,721.6 L419.4,720.7 L419.4,720.7 L418.2,720.6 L418.2,720.6 L395.0,719.0 L394.8,718.9 L361.2,716.6Z" fill="#911eb4"><title>Echols - East Sandhills</title></path>
<path d="M593.9,415.9 L596.5,417.1 L597.8,417.4 L601.9,419.7 L603.4,420.5 L613.4,431.7 L617.4,447.0 L620.9,449.9 L621.8,451.1 L623.3,456.7 L623.6,459.7 L622.6,461.2 L622.9,468.8 L613.8,467.2 L588.3,489.1 L582.5,466.6 L568.6,439.4 L567.9,428.3 L569.2,425.2 L588.6,411.9 L593.9,415.9Z" fill="#a9a9a9"><title>Effingham - Chatham-Effingham Coast</title></path>
<path d="M412.6,162.5 L413.9,167.1 L415.8,171.4 L417.5,172.9 L421.0,174.4 L422.2,176.1 L423.4,178.7 L423.4,178.8 L424.0,179.2 L424.3,179.3 L425.7,181.0 L425.8,181.1 L431.4,192.8 L435.7,201.5 L435.7,201.6 L425.1,197.2 L407.7,199.2 L382.1,188.0 L365.7,167.8 L368.8,160.1 L381.5,162.0 L409.4,149.3 L410.9,152.0 L412.6,159.1 L412.4,159.6 L412.3,159.9 L412.6,162.2 L412.6,162.5Z" fill="#e6194B"><title>Elbert - Upper Piedmont Lakes</title></path>
<path d="M424.8,424.7 L431.8,414.4 L448.6,403.9 L444.1,397.8 L452.6,386.1 L467.9,374.7 L490.3,378.3 L498.4,401.4 L509.0,410.1 L505.6,418.1 L505.2,420.6 L489.8,423.5 L476.2,449.3 L478.8,454.6 L463.0,458.7 L455.9,449.2 L459.4,435.8 L445.5,427.9 L424.8,424.7Z" fill="#000075"><title>Emanuel - West Sandhills &amp; Fall Line</title></path>
<path d="M513.2,462.4 L533.0,467.2 L537.6,480.3 L545.7,490.1 L540.1,496.5 L511.7,491.3 L505.8,460.8 L509.1,461.2 L513.2,462.4Z" fill="#911eb4"><title>Evans - East Sandhills</title></path>
<path d="M168.0,41.9 L182.5,42.0 L182.6,42.0 L197.5,42.0 L197.6,42.0 L207.0,41.9 L232.0,42.1 L232.0,42.1 L225.6,48.4 L234.9,57.6 L236.7,70.8 L228.3,94.5 L224.3,101.5 L224.3,100.7 L223.3,99.2 L207.9,69.9 L193.0,62.5 L168.4,62.5 L168.0,41.9Z" fill="#42d4f4"><title>Fannin - North Georgia Mountains</title></path>
<path d="M184.1,309.5 L167.3,281.3 L169.6,271.6 L189.2,264.1 L199.2,277.7 L198.4,294.8 L192.5,309.7 L184.1,309.5Z" fill="#660033"><title>Fayette - South Atlanta Piedmont</title></path>
<path d="M109.7,103.9 L107.5,132.7 L118.0,134.0 L112.6,179.8 L85.2,179.2 L63.9,182.2 L59.5,156.0 L59.5,155.6 L59.1,153.6 L59.1,153.1 L58.6,150.4 L68.3,150.5 L75.2,137.6 L95.3,127.3 L104.7,103.9 L109.7,103.9Z" fill="#42d4f4"><title>Floyd - North Georgia Mountains</title></path>
<path d="M215.3,142.9 L254.5,143.1 L258.3,151.5 L250.3,164.5 L240.7,168.8 L239.2,169.4 L236.5,174.4 L235.7,178.3 L235.5,178.7 L235.2,178.9 L234.9,179.3 L234.6,179.5 L233.5,184.6 L236.2,186.9 L222.8,180.8 L215.2,177.8 L215.2,166.0 L215.3,142.9Z" fill="#e6194B"><title>Forsyth - Upper Piedmont Lakes</title></path>
<path d="M332.8,160.1 L327.7,144.5 L327.2,123.5 L355.9,121.0 L365.1,112.2 L367.7,115.0 L369.5,116.7 L372.2,118.5 L366.7,130.4 L364.2,152.4 L356.5,157.8 L340.3,153.8 L332.8,160.1Z" fill="#e6194B"><title>Franklin - Upper Piedmont Lakes</title></path>
<path d="M150.9,251.9 L166.9,242.2 L166.6,241.0 L168.0,240.4 L169.8,239.1 L170.6,237.3 L171.5,236.6 L172.5,236.6 L173.6,234.4 L186.4,223.0 L191.3,209.9 L199.0,200.3 L194.4,183.4 L206.2,165.9 L215.2,166.0 L215.2,177.8 L222.8,180.8 L236.2,186.9 L212.9,201.3 L203.6,204.3 L203.6,206.0 L203.6,207.3 L203.6,207.3 L203.6,209.4 L203.6,211.3 L203.5,213.0 L203.6,213.4 L203.5,215.1 L203.6,215.6 L203.5,216.1 L203.6,216.4 L203.6,216.7 L203.5,217.5 L203.4,246.7 L203.3,249.1 L202.0,249.1 L201.3,249.2 L189.3,249.0 L189.2,255.2 L189.2,258.7 L189.2,260.8 L189.2,260.9 L189.2,261.8 L189.2,262.8 L189.2,263.3 L189.2,264.1 L169.6,271.6 L138.2,270.2 L143.6,260.6 L144.0,258.7 L147.9,255.1 L149.6,254.4 L150.9,251.9Z" fill="#aaffc3"><title>Fulton - Fulton County</title></path>
<path d="M163.7,109.9 L163.7,104.6 L163.4,82.0 L173.1,67.2 L168.4,62.5 L193.0,62.5 L207.9,69.9 L223.3,99.2 L215.7,106.9 L203.9,107.7 L163.7,109.9Z" fill="#42d4f4"><title>Gilmer - North Georgia Mountains</title></path>
<path d="M452.9,306.8 L423.0,329.8 L411.8,312.5 L411.9,311.0 L410.8,310.1 L436.3,298.7 L452.9,306.8Z" fill="#000075"><title>Glascock - West Sandhills &amp; Fall Line</title></path>
<path d="M581.6,655.9 L564.7,643.5 L539.5,632.3 L544.0,607.5 L549.2,596.6 L558.0,588.5 L582.5,610.1 L604.1,613.0 L603.5,613.8 L603.2,619.1 L602.4,620.7 L601.6,623.7 L601.7,625.9 L601.1,626.6 L599.6,626.6 L598.4,626.4 L595.1,629.6 L593.1,632.7 L592.3,634.4 L592.5,635.5 L591.3,637.4 L588.9,637.9 L587.2,637.8 L586.9,639.1 L586.7,642.0 L587.0,645.2 L587.0,647.3 L585.2,654.4 L584.5,655.9 L584.0,656.4 L583.0,656.5 L582.7,656.2 L582.7,655.8 L581.6,655.9Z" fill="#00ff00"><title>Glynn - Glynn County</title></path>
<path d="M163.7,104.6 L163.7,109.9 L163.9,130.9 L136.6,133.4 L118.0,134.0 L107.5,132.7 L109.7,103.9 L110.9,103.9 L110.9,98.5 L111.6,98.5 L111.6,98.5 L112.2,98.5 L130.0,96.7 L136.5,100.6 L155.6,98.4 L163.7,104.6Z" fill="#42d4f4"><title>Gordon - North Georgia Mountains</title></path>
<path d="M199.3,706.5 L199.9,646.3 L233.7,646.5 L233.4,661.5 L238.9,671.6 L238.0,708.6 L212.3,707.2 L212.1,707.2 L199.3,706.5Z" fill="#9A6324"><title>Grady - Southwest Georgia</title></path>
<path d="M357.6,294.4 L342.6,274.6 L344.0,266.9 L326.1,241.4 L342.5,231.5 L363.5,241.3 L379.6,242.1 L385.4,247.6 L377.2,259.6 L377.3,276.8 L357.6,294.4Z" fill="#660033"><title>Greene - South Atlanta Piedmont</title></path>
<path d="M234.6,179.5 L234.9,179.3 L235.2,178.9 L235.5,178.7 L235.7,178.3 L236.5,174.4 L239.2,169.4 L240.7,168.8 L266.0,179.5 L272.6,175.0 L265.9,194.0 L275.0,205.6 L251.2,227.8 L250.9,228.1 L245.8,232.9 L226.5,216.7 L225.5,215.7 L224.5,215.5 L222.4,214.4 L222.2,213.7 L220.7,212.5 L218.7,209.9 L216.3,208.5 L215.6,208.0 L215.2,207.3 L214.3,205.1 L213.5,203.2 L214.2,202.8 L213.5,201.5 L213.0,201.8 L212.9,201.3 L236.2,186.9 L233.5,184.6 L234.6,179.5Z" fill="#3cb44b"><title>Gwinnett - Gwinnett County</title></path>
<path d="M333.1,84.0 L333.3,84.3 L333.3,84.5 L333.3,86.2 L335.0,88.4 L335.0,88.4 L319.2,120.3 L309.1,118.7 L298.9,128.0 L292.3,116.9 L298.9,109.2 L292.7,92.7 L297.9,81.5 L290.3,70.9 L292.2,70.0 L293.4,68.9 L294.1,67.5 L302.6,67.9 L307.6,78.9 L333.1,84.0 L333.1,84.0Z" fill="#42d4f4"><title>Habersham - North Georgia Mountains</title></path>
<path d="M240.7,168.8 L250.3,164.5 L258.3,151.5 L254.5,143.1 L251.4,130.0 L269.3,116.6 L292.3,116.9 L298.9,128.0 L291.9,138.0 L298.3,149.1 L272.6,175.0 L266.0,179.5 L240.7,168.8Z" fill="#e6194B"><title>Hall - Upper Piedmont Lakes</title></path>
<path d="M372.2,336.8 L365.9,341.6 L366.3,325.9 L343.3,320.4 L346.0,309.2 L360.0,301.1 L357.6,294.4 L377.3,276.8 L398.3,280.7 L410.8,310.1 L411.9,311.0 L411.8,312.5 L397.9,318.9 L393.5,327.9 L372.2,336.8Z" fill="#000075"><title>Hancock - West Sandhills &amp; Fall Line</title></path>
<path d="M68.4,209.9 L112.2,209.5 L114.0,209.5 L113.8,223.8 L112.1,238.8 L74.8,248.3 L71.8,230.6 L71.7,229.7 L68.4,209.9Z" fill="#469990"><title>Haralson - West Central Piedmont</title></path>
<path d="M101.6,385.8 L102.7,384.5 L94.8,369.3 L136.7,369.0 L157.7,373.3 L158.5,413.6 L130.7,413.7 L130.8,410.0 L108.0,410.1 L105.1,404.6 L103.8,397.9 L100.9,388.7 L100.9,388.5 L101.6,385.8Z" fill="#f032e6"><title>Harris - Columbus-Fall Line</title></path>
<path d="M380.0,120.6 L381.7,120.1 L386.9,119.6 L391.7,119.6 L394.2,120.7 L395.4,121.8 L395.3,122.2 L398.7,129.2 L409.4,149.3 L381.5,162.0 L368.8,160.1 L364.0,154.2 L364.2,152.4 L366.7,130.4 L372.2,118.5 L374.5,120.0 L378.1,121.4 L379.6,121.4 L380.0,120.7 L380.0,120.6Z" fill="#e6194B"><title>Hart - Upper Piedmont Lakes</title></path>
<path d="M80.5,283.1 L116.7,283.5 L126.7,314.6 L88.0,329.3 L80.5,283.1Z" fill="#469990"><title>Heard - West Central Piedmont</title></path>
<path d="M212.0,271.6 L212.3,249.2 L215.8,249.3 L216.9,251.8 L219.7,251.8 L219.7,249.4 L224.9,249.4 L225.2,252.0 L226.5,253.2 L231.1,260.8 L243.1,268.0 L258.8,280.6 L243.1,297.7 L243.1,297.8 L243.3,297.8 L235.5,303.2 L229.3,297.4 L202.8,294.8 L202.9,281.9 L212.0,271.6Z" fill="#660033"><title>Henry - South Atlanta Piedmont</title></path>
<path d="M268.6,458.9 L268.8,431.5 L285.3,421.7 L287.8,397.0 L287.8,396.9 L301.2,401.2 L305.3,401.8 L314.2,434.0 L316.2,438.3 L314.2,441.8 L298.9,459.3 L268.6,458.9Z" fill="#bfef45"><title>Houston - Macon Area</title></path>
<path d="M313.8,566.7 L320.0,541.3 L336.7,541.5 L336.6,553.3 L355.9,557.8 L356.0,553.6 L379.2,554.4 L360.1,585.5 L360.0,585.5 L334.9,584.9 L313.8,566.7Z" fill="#000075"><title>Irwin - West Sandhills &amp; Fall Line</title></path>
<path d="M332.2,188.4 L309.1,200.0 L305.7,189.8 L279.1,184.4 L272.6,175.0 L298.3,149.1 L316.5,154.2 L326.6,164.2 L332.2,188.4Z" fill="#e6194B"><title>Jackson - Upper Piedmont Lakes</title></path>
<path d="M272.8,328.9 L272.7,327.4 L273.1,326.4 L271.9,324.9 L271.7,322.2 L272.0,321.5 L273.1,311.9 L266.7,292.4 L271.7,281.7 L291.2,274.0 L290.2,268.0 L302.6,277.3 L309.5,282.1 L309.0,288.4 L308.0,322.7 L272.8,328.9Z" fill="#660033"><title>Jasper - South Atlanta Piedmont</title></path>
<path d="M441.3,548.6 L441.3,554.5 L427.5,554.5 L400.3,554.7 L400.3,532.3 L425.1,516.5 L438.4,510.3 L446.3,508.7 L446.7,508.3 L449.5,509.5 L450.3,509.4 L451.3,508.9 L452.0,508.9 L453.0,509.1 L453.0,529.0 L441.4,528.9 L441.3,548.6Z" fill="#911eb4"><title>Jeff Davis - East Sandhills</title></path>
<path d="M452.6,386.1 L441.3,376.8 L442.7,362.0 L437.5,346.3 L423.0,329.8 L452.9,306.8 L459.2,301.1 L460.7,301.3 L462.6,301.0 L463.1,301.0 L468.6,303.4 L470.5,306.4 L471.8,306.9 L472.9,307.7 L474.3,308.0 L478.9,313.6 L471.2,339.6 L473.7,358.9 L467.9,374.7 L452.6,386.1Z" fill="#000075"><title>Jefferson - West Sandhills &amp; Fall Line</title></path>
<path d="M539.4,363.3 L526.3,398.6 L529.8,403.6 L509.0,410.1 L498.4,401.4 L490.3,378.3 L498.5,362.2 L527.6,356.4 L539.4,363.3Z" fill="#911eb4"><title>Jenkins - East Sandhills</title></path>
<path d="M385.9,386.5 L404.7,378.7 L409.1,385.0 L441.3,376.8 L452.6,386.1 L444.1,397.8 L448.6,403.9 L431.8,414.4 L424.8,424.7 L422.1,409.3 L396.9,393.3 L384.6,394.4 L386.0,389.3 L385.9,386.5Z" fill="#000075"><title>Johnson - West Sandhills &amp; Fall Line</title></path>
<path d="M332.5,360.7 L326.1,365.0 L326.0,365.1 L326.0,365.1 L312.2,373.3 L293.3,366.6 L286.5,356.6 L281.8,339.5 L272.8,328.9 L308.0,322.7 L323.2,320.7 L325.0,331.9 L329.5,349.6 L332.5,360.7Z" fill="#bfef45"><title>Jones - Macon Area</title></path>
<path d="M213.7,350.7 L216.6,320.1 L232.8,318.0 L243.5,318.0 L243.1,357.4 L232.8,359.8 L233.0,350.9 L213.7,350.7Z" fill="#660033"><title>Lamar - South Atlanta Piedmont</title></path>
<path d="M376.5,681.8 L373.4,666.7 L355.6,666.2 L353.2,654.6 L357.5,635.8 L374.0,635.8 L372.9,630.1 L382.7,630.1 L382.7,678.7 L381.3,678.3 L379.8,680.0 L378.1,680.2 L377.2,682.5 L376.5,681.8Z" fill="#9A6324"><title>Lanier - Southwest Georgia</title></path>
<path d="M349.5,413.6 L384.5,394.4 L384.6,394.4 L396.9,393.3 L422.1,409.3 L424.8,424.7 L413.2,451.7 L415.2,456.1 L394.0,473.6 L380.2,481.1 L360.9,438.5 L349.5,413.6Z" fill="#000075"><title>Laurens - West Sandhills &amp; Fall Line</title></path>
<path d="M259.0,517.9 L258.6,518.5 L258.3,518.7 L257.7,519.6 L257.7,520.3 L258.2,521.4 L257.7,521.7 L257.5,522.3 L257.8,522.9 L258.2,523.7 L258.4,525.0 L257.7,525.7 L257.1,525.9 L257.0,526.4 L256.9,527.2 L256.8,527.4 L244.7,547.7 L246.5,558.0 L243.3,562.1 L210.1,562.4 L211.6,536.2 L204.9,523.5 L204.9,516.9 L259.0,517.9Z" fill="#9A6324"><title>Lee - Southwest Georgia</title></path>
<path d="M614.0,570.7 L605.2,558.0 L582.5,559.3 L575.3,550.4 L555.7,540.2 L539.7,523.3 L541.6,508.1 L532.0,501.6 L533.9,500.9 L540.1,496.5 L545.7,490.1 L560.6,502.2 L562.0,508.3 L577.3,507.9 L586.2,512.5 L592.9,532.5 L613.4,546.3 L612.8,547.3 L615.0,550.1 L618.3,551.6 L619.1,551.2 L619.5,550.5 L619.8,550.4 L621.1,550.3 L622.2,550.9 L621.6,552.8 L621.5,554.2 L622.1,557.3 L621.9,562.1 L619.7,566.8 L618.4,570.3 L616.7,572.6 L616.0,572.6 L615.4,571.9 L615.0,570.7 L614.0,570.7Z" fill="#00ffff"><title>Liberty - Mid-Coast Georgia</title></path>
<path d="M453.8,248.7 L453.1,248.0 L452.4,248.5 L450.3,248.9 L449.5,250.8 L448.0,250.6 L447.1,249.7 L446.7,250.4 L431.9,221.4 L425.1,197.2 L435.7,201.6 L453.3,215.5 L454.1,215.8 L456.0,215.4 L456.6,215.5 L466.9,222.5 L469.9,225.3 L476.9,233.0 L480.7,243.2 L469.3,241.0 L453.8,248.7Z" fill="#e6beff"><title>Lincoln - Upper Savannah</title></path>
<path d="M575.3,550.4 L565.6,569.4 L553.0,575.2 L528.6,555.3 L513.2,536.5 L532.0,501.6 L541.6,508.1 L539.7,523.3 L555.7,540.2 L575.3,550.4Z" fill="#911eb4"><title>Long - East Sandhills</title></path>
<path d="M317.1,653.6 L340.6,654.3 L342.5,654.4 L343.4,654.4 L353.2,654.6 L355.6,666.2 L373.4,666.7 L376.5,681.8 L367.5,681.9 L361.3,693.3 L361.2,716.6 L358.7,716.4 L357.7,716.3 L356.3,716.3 L354.6,716.1 L345.7,715.5 L338.8,715.0 L338.8,715.0 L338.7,715.0 L338.4,715.0 L334.6,714.7 L334.6,714.7 L332.5,714.6 L316.2,696.1 L320.5,686.7 L332.3,683.8 L319.4,658.4 L319.1,658.1 L319.0,657.6 L318.7,657.6 L318.6,656.8 L318.3,656.4 L318.4,655.7 L318.1,655.2 L317.7,654.8 L317.6,654.4 L318.1,654.1 L317.7,654.1 L317.5,653.9 L317.4,654.1 L317.3,653.7 L316.9,653.7 L317.1,653.6Z" fill="#9A6324"><title>Lowndes - Southwest Georgia</title></path>
<path d="M269.3,116.6 L251.4,130.0 L235.6,122.9 L224.0,111.4 L224.3,101.5 L228.3,94.5 L244.1,95.5 L256.8,80.2 L267.5,83.1 L264.8,97.4 L269.3,116.6Z" fill="#42d4f4"><title>Lumpkin - North Georgia Mountains</title></path>
<path d="M225.2,468.4 L215.6,458.1 L215.7,446.4 L233.0,425.7 L247.8,423.2 L268.8,431.5 L268.6,458.9 L253.4,465.6 L245.2,477.5 L225.2,468.4Z" fill="#bfef45"><title>Macon - Macon Area</title></path>
<path d="M345.4,194.9 L332.2,188.4 L326.6,164.2 L326.9,163.7 L330.5,162.9 L332.8,160.1 L340.3,153.8 L356.5,157.8 L364.2,152.4 L364.0,154.2 L368.8,160.1 L365.7,167.8 L382.1,188.0 L372.6,192.2 L362.9,187.4 L345.4,194.9Z" fill="#e6194B"><title>Madison - Upper Piedmont Lakes</title></path>
<path d="M164.4,467.9 L163.1,467.9 L163.3,427.4 L165.9,421.2 L191.1,417.0 L197.8,439.9 L192.9,478.2 L192.8,483.2 L180.3,483.1 L164.4,467.9Z" fill="#f032e6"><title>Marion - Columbus-Fall Line</title></path>
<path d="M453.8,248.7 L452.3,264.3 L470.8,294.5 L463.5,300.6 L463.1,301.0 L462.6,301.0 L460.7,301.3 L459.2,301.1 L437.6,294.0 L424.6,255.2 L446.7,250.4 L447.1,249.7 L448.0,250.6 L449.5,250.8 L450.3,248.9 L452.4,248.5 L453.1,248.0 L453.8,248.7Z" fill="#e6beff"><title>McDuffie - Upper Savannah</title></path>
<path d="M553.0,575.2 L565.6,569.4 L575.3,550.4 L582.5,559.3 L605.2,558.0 L614.0,570.7 L612.7,570.7 L611.3,572.3 L607.9,573.1 L606.2,572.6 L605.4,573.7 L604.9,576.2 L605.0,576.4 L605.6,576.7 L610.9,577.0 L611.5,576.9 L613.3,575.4 L614.1,575.7 L615.6,576.9 L616.0,577.7 L616.2,578.6 L614.6,580.7 L612.6,585.4 L607.1,593.1 L605.6,596.0 L603.0,601.7 L602.9,604.2 L602.4,608.0 L603.5,608.1 L604.4,608.4 L606.1,609.7 L605.3,611.5 L604.1,613.0 L582.5,610.1 L558.0,588.5 L553.0,575.2Z" fill="#00ffff"><title>McIntosh - Mid-Coast Georgia</title></path>
<path d="M136.7,319.8 L138.0,314.7 L183.5,315.1 L184.7,318.4 L184.2,320.9 L180.3,353.9 L182.9,367.6 L174.6,373.3 L157.7,373.3 L136.7,369.0 L136.7,319.8Z" fill="#469990"><title>Meriwether - West Central Piedmont</title></path>
<path d="M128.8,647.3 L129.5,618.9 L165.4,618.5 L179.0,618.9 L178.3,646.3 L153.8,647.8 L128.8,647.3Z" fill="#9A6324"><title>Miller - Southwest Georgia</title></path>
<path d="M199.9,646.3 L182.8,646.4 L186.0,634.5 L196.3,627.7 L204.6,611.3 L222.8,603.5 L230.5,590.5 L249.2,589.9 L248.9,606.7 L248.4,646.6 L248.3,646.6 L233.7,646.5 L199.9,646.3Z" fill="#9A6324"><title>Mitchell - Southwest Georgia</title></path>
<path d="M272.0,321.5 L271.7,322.2 L271.9,324.9 L273.1,326.4 L272.7,327.4 L272.8,328.9 L281.8,339.5 L286.5,356.6 L262.9,372.8 L232.7,372.6 L232.8,359.8 L243.1,357.4 L243.5,318.0 L272.0,321.5Z" fill="#bfef45"><title>Monroe - Macon Area</title></path>
<path d="M455.9,449.2 L446.3,508.7 L438.4,510.3 L431.3,501.7 L429.4,478.9 L423.8,457.9 L455.9,449.2Z" fill="#911eb4"><title>Montgomery - East Sandhills</title></path>
<path d="M342.6,274.6 L309.5,282.1 L302.6,277.3 L290.2,268.0 L290.8,261.0 L290.3,260.0 L289.6,259.3 L289.6,258.3 L290.4,257.0 L313.2,222.9 L326.1,241.4 L344.0,266.9 L342.6,274.6Z" fill="#660033"><title>Morgan - South Atlanta Piedmont</title></path>
<path d="M147.9,42.0 L153.7,42.0 L154.2,42.0 L168.0,41.9 L168.4,62.5 L173.1,67.2 L163.4,82.0 L163.7,104.6 L155.6,98.4 L136.5,100.6 L130.0,96.7 L127.4,85.4 L136.3,85.4 L134.6,74.2 L142.3,59.1 L143.4,42.0 L143.6,42.0 L143.7,42.0 L147.9,42.0Z" fill="#42d4f4"><title>Murray - North Georgia Mountains</title></path>
<path d="M118.6,425.0 L118.6,424.6 L117.8,422.9 L115.8,420.0 L112.9,417.4 L109.7,413.6 L108.3,410.7 L108.3,410.6 L108.0,410.1 L130.8,410.0 L130.7,413.7 L158.5,413.6 L158.5,423.7 L148.8,438.6 L148.1,438.7 L147.6,438.5 L147.2,438.5 L147.0,438.7 L146.3,439.3 L145.9,439.8 L144.9,439.6 L144.1,439.2 L143.5,438.8 L143.3,439.2 L142.9,439.8 L141.7,439.9 L140.3,440.0 L139.0,440.0 L138.4,439.8 L120.4,444.9 L121.4,440.2 L120.9,435.0 L119.0,431.3 L118.6,425.6 L118.6,425.0 L118.6,425.0Z" fill="#f032e6"><title>Muscogee - Columbus-Fall Line</title></path>
<path d="M290.2,268.0 L291.2,274.0 L271.7,281.7 L266.7,292.4 L258.8,280.6 L243.1,268.0 L245.6,264.7 L245.7,264.6 L252.4,255.7 L260.0,234.3 L277.8,247.5 L290.4,257.0 L289.6,258.3 L289.6,259.3 L290.3,260.0 L290.8,261.0 L290.2,268.0Z" fill="#660033"><title>Newton - South Atlanta Piedmont</title></path>
<path d="M313.2,222.9 L294.8,209.2 L309.1,200.0 L343.1,218.2 L342.5,231.5 L326.1,241.4 L313.2,222.9Z" fill="#fabed4"><title>Oconee - Athens Area</title></path>
<path d="M407.7,199.2 L395.3,206.8 L380.7,228.6 L385.6,235.9 L380.4,240.1 L379.6,242.1 L363.5,241.3 L342.5,231.5 L343.1,218.2 L347.7,209.5 L345.4,194.9 L362.9,187.4 L372.6,192.2 L382.1,188.0 L407.7,199.2Z" fill="#fabed4"><title>Oglethorpe - Athens Area</title></path>
<path d="M112.2,209.5 L121.5,202.2 L128.8,182.0 L152.9,182.4 L154.6,213.0 L154.5,222.6 L154.5,223.0 L154.7,223.3 L154.6,224.7 L154.6,227.0 L154.5,227.4 L152.4,227.4 L148.7,228.0 L145.8,228.5 L145.4,228.8 L144.8,228.7 L140.5,229.0 L140.5,229.3 L134.5,229.5 L131.5,228.6 L129.3,227.8 L113.8,223.8 L114.0,209.5 L112.2,209.5Z" fill="#469990"><title>Paulding - West Central Piedmont</title></path>
<path d="M268.8,431.5 L247.8,423.2 L248.7,423.4 L248.4,422.0 L279.2,396.8 L287.8,397.0 L285.3,421.7 L268.8,431.5Z" fill="#bfef45"><title>Peach - Macon Area</title></path>
<path d="M163.7,109.9 L203.9,107.7 L207.3,122.4 L215.4,122.5 L215.4,135.8 L173.1,135.7 L163.9,130.9 L163.7,109.9Z" fill="#42d4f4"><title>Pickens - North Georgia Mountains</title></path>
<path d="M454.8,594.0 L464.3,592.0 L479.6,576.5 L491.8,585.7 L502.3,588.2 L503.8,600.7 L508.2,615.7 L496.1,615.7 L483.8,626.4 L472.1,623.8 L459.2,613.5 L454.8,594.0Z" fill="#911eb4"><title>Pierce - East Sandhills</title></path>
<path d="M216.6,320.1 L213.7,350.7 L185.1,350.3 L180.3,353.9 L184.2,320.9 L190.1,317.0 L216.6,320.1Z" fill="#660033"><title>Pike - South Atlanta Piedmont</title></path>
<path d="M128.8,182.0 L121.5,202.2 L112.2,209.5 L68.4,209.9 L66.8,200.3 L63.9,182.2 L85.2,179.2 L112.6,179.8 L128.8,182.0Z" fill="#42d4f4"><title>Polk - North Georgia Mountains</title></path>
<path d="M314.2,441.8 L333.9,461.8 L341.1,476.3 L335.1,487.5 L299.8,485.6 L298.9,459.3 L314.2,441.8Z" fill="#000075"><title>Pulaski - West Sandhills &amp; Fall Line</title></path>
<path d="M308.0,322.7 L309.0,288.4 L309.5,282.1 L342.6,274.6 L357.6,294.4 L360.0,301.1 L346.0,309.2 L343.3,320.4 L323.2,320.7 L308.0,322.7Z" fill="#660033"><title>Putnam - South Atlanta Piedmont</title></path>
<path d="M110.6,505.2 L130.8,515.6 L130.4,538.4 L124.1,538.3 L100.7,537.9 L100.4,537.4 L100.3,528.7 L101.4,521.2 L104.9,517.0 L108.1,512.5 L109.3,509.4 L110.6,505.2Z" fill="#9A6324"><title>Quitman - Southwest Georgia</title></path>
<path d="M364.9,40.0 L360.4,51.8 L347.4,59.0 L344.2,66.0 L342.2,67.7 L336.8,72.8 L334.9,80.1 L333.1,84.0 L307.6,78.9 L302.6,67.9 L294.1,67.5 L293.5,58.9 L307.5,41.3 L316.1,41.1 L364.9,40.0 L364.9,40.0Z" fill="#42d4f4"><title>Rabun - North Georgia Mountains</title></path>
<path d="M124.1,538.3 L130.4,538.4 L130.8,515.6 L163.5,516.2 L170.8,516.3 L170.4,539.2 L179.2,553.1 L177.7,562.5 L142.5,562.7 L126.2,562.9 L124.1,538.3Z" fill="#9A6324"><title>Randolph - Southwest Georgia</title></path>
<path d="M505.5,265.1 L507.3,267.3 L508.1,268.4 L508.2,268.5 L513.4,275.0 L514.6,276.9 L520.5,286.1 L521.8,298.1 L528.4,311.0 L528.4,311.1 L497.7,313.7 L486.5,303.4 L474.3,308.0 L472.9,307.7 L471.8,306.9 L470.5,306.4 L468.6,303.4 L463.1,301.0 L463.5,300.6 L470.8,294.5 L505.5,265.1Z" fill="#f58231"><title>Richmond - Augusta Area</title></path>
<path d="M245.8,232.9 L250.9,228.1 L251.2,227.8 L254.8,230.4 L254.9,230.6 L260.0,234.3 L252.4,255.7 L245.7,264.6 L245.6,264.7 L243.1,268.0 L231.1,260.8 L226.5,253.2 L225.2,252.0 L224.9,249.4 L235.3,251.0 L241.5,237.0 L245.8,232.9Z" fill="#660033"><title>Rockdale - South Atlanta Piedmont</title></path>
<path d="M215.7,446.4 L215.6,458.1 L225.2,468.4 L225.0,479.4 L192.9,478.2 L197.8,439.9 L215.7,446.4Z" fill="#9A6324"><title>Schley - Southwest Georgia</title></path>
<path d="M586.5,388.7 L585.3,405.4 L584.8,405.8 L584.8,406.6 L585.7,408.3 L588.6,411.9 L588.6,411.9 L569.2,425.2 L567.9,428.3 L549.5,419.5 L529.8,403.6 L526.3,398.6 L539.4,363.3 L568.7,342.3 L572.7,345.5 L574.6,347.7 L575.3,349.5 L574.9,352.6 L574.2,354.9 L584.1,378.6 L586.6,388.4 L586.5,388.7Z" fill="#911eb4"><title>Screven - East Sandhills</title></path>
<path d="M115.9,646.8 L118.5,646.9 L118.8,647.0 L128.8,647.3 L153.8,647.8 L150.5,676.2 L136.5,703.1 L136.4,703.1 L132.3,697.1 L126.3,675.8 L124.0,672.3 L120.9,668.5 L118.9,662.9 L118.4,658.4 L118.8,656.4 L115.9,646.8Z" fill="#9A6324"><title>Seminole - Southwest Georgia</title></path>
<path d="M183.5,315.1 L183.8,313.2 L182.6,311.4 L184.1,309.5 L192.5,309.7 L198.4,294.8 L202.8,294.8 L229.3,297.4 L235.5,303.2 L232.8,318.0 L216.6,320.1 L190.1,317.0 L184.2,320.9 L184.7,318.4 L183.5,315.1Z" fill="#660033"><title>Spalding - South Atlanta Piedmont</title></path>
<path d="M335.0,88.4 L341.0,93.7 L347.7,98.2 L347.7,98.2 L357.2,101.9 L356.8,102.1 L356.8,103.1 L365.1,112.2 L355.9,121.0 L327.2,123.5 L325.2,122.4 L319.2,120.3 L335.0,88.4Z" fill="#e6194B"><title>Stephens - Upper Piedmont Lakes</title></path>
<path d="M128.7,468.1 L163.1,467.9 L164.4,467.9 L163.5,516.2 L130.8,515.6 L110.6,505.2 L112.2,500.2 L111.5,494.2 L112.5,482.0 L119.3,475.3 L123.3,473.8 L128.7,468.1Z" fill="#9A6324"><title>Stewart - Southwest Georgia</title></path>
<path d="M192.9,478.2 L225.0,479.4 L225.2,468.4 L245.2,477.5 L253.9,499.2 L259.0,517.9 L204.9,516.9 L204.9,523.5 L191.1,508.9 L192.8,483.2 L192.9,478.2Z" fill="#9A6324"><title>Sumter - Southwest Georgia</title></path>
<path d="M191.1,417.0 L165.9,421.2 L164.4,421.2 L163.2,422.2 L162.8,422.1 L160.6,423.7 L159.6,423.6 L158.5,423.7 L158.5,413.6 L157.7,373.3 L174.6,373.3 L182.9,367.6 L198.0,382.3 L211.6,388.3 L204.9,392.5 L195.7,417.0 L191.1,417.0Z" fill="#f032e6"><title>Talbot - Columbus-Fall Line</title></path>
<path d="M420.6,256.6 L411.4,270.4 L403.0,268.7 L398.3,280.7 L377.3,276.8 L377.2,259.6 L385.4,247.6 L379.6,242.1 L380.4,240.1 L385.6,235.9 L393.2,251.5 L403.3,247.9 L420.6,256.6Z" fill="#000075"><title>Taliaferro - West Sandhills &amp; Fall Line</title></path>
<path d="M540.1,496.5 L533.9,500.9 L532.0,501.6 L513.2,536.5 L511.5,537.2 L508.2,534.8 L507.2,531.5 L505.4,532.4 L502.8,530.6 L490.5,519.5 L479.8,517.4 L485.4,478.3 L478.8,454.6 L505.8,460.8 L511.7,491.3 L540.1,496.5Z" fill="#911eb4"><title>Tattnall - East Sandhills</title></path>
<path d="M215.7,446.4 L197.8,439.9 L191.1,417.0 L195.7,417.0 L204.9,392.5 L211.6,388.3 L222.5,397.2 L235.2,399.8 L248.4,422.0 L248.7,423.4 L247.8,423.2 L233.0,425.7 L215.7,446.4Z" fill="#f032e6"><title>Taylor - Columbus-Fall Line</title></path>
<path d="M379.6,537.8 L355.9,527.4 L352.2,519.3 L386.5,484.7 L384.8,483.0 L387.5,480.2 L388.4,483.0 L393.6,491.6 L414.2,502.8 L425.1,516.5 L400.3,532.3 L396.8,537.5 L379.6,537.8Z" fill="#000075"><title>Telfair - West Sandhills &amp; Fall Line</title></path>
<path d="M210.1,562.4 L190.3,562.4 L190.3,562.5 L177.7,562.5 L179.2,553.1 L170.4,539.2 L170.8,516.3 L189.9,516.4 L191.1,508.9 L204.9,523.5 L211.6,536.2 L210.1,562.4Z" fill="#9A6324"><title>Terrell - Southwest Georgia</title></path>
<path d="M238.0,708.6 L238.9,671.6 L233.4,661.5 L233.7,646.5 L248.3,646.6 L248.4,646.6 L248.4,652.1 L283.2,652.7 L282.2,711.3 L273.5,710.8 L272.2,710.7 L267.7,710.4 L264.5,710.2 L264.4,710.2 L247.9,709.2 L247.9,709.2 L243.7,708.9 L243.4,708.9 L242.8,708.9 L241.4,708.8 L238.0,708.6Z" fill="#9A6324"><title>Thomas - Southwest Georgia</title></path>
<path d="M334.9,584.9 L322.5,604.3 L319.1,608.1 L312.3,607.9 L293.9,607.4 L294.5,570.7 L294.6,566.3 L313.8,566.7 L334.9,584.9Z" fill="#9A6324"><title>Tift - Southwest Georgia</title></path>
<path d="M453.0,509.1 L452.0,508.9 L451.3,508.9 L450.3,509.4 L449.5,509.5 L446.7,508.3 L446.3,508.7 L455.9,449.2 L455.9,449.2 L455.9,449.2 L455.9,449.2 L463.0,458.7 L478.8,454.6 L485.4,478.3 L479.8,517.4 L453.0,509.1Z" fill="#911eb4"><title>Toombs - East Sandhills</title></path>
<path d="M277.4,72.1 L272.4,53.5 L259.9,51.4 L257.1,42.1 L291.3,42.1 L298.3,41.3 L307.5,41.3 L293.5,58.9 L294.1,67.5 L293.4,68.9 L292.2,70.0 L290.3,70.9 L289.8,70.9 L288.8,71.5 L288.4,72.0 L287.7,72.2 L287.4,72.4 L286.9,72.3 L286.4,72.5 L286.1,72.1 L285.2,71.6 L285.0,71.5 L284.4,71.4 L283.2,71.0 L282.3,70.9 L277.4,72.1Z" fill="#42d4f4"><title>Towns - North Georgia Mountains</title></path>
<path d="M455.9,449.2 L455.9,449.2 L455.9,449.2 L455.9,449.2 L423.8,457.9 L415.2,456.1 L413.2,451.7 L424.8,424.7 L445.5,427.9 L459.4,435.8 L455.9,449.2Z" fill="#911eb4"><title>Treutlen - East Sandhills</title></path>
<path d="M88.0,329.3 L126.7,314.6 L136.7,319.8 L136.7,369.0 L94.8,369.3 L89.9,340.7 L89.7,339.6 L88.5,332.6 L88.0,329.3Z" fill="#469990"><title>Troup - West Central Piedmont</title></path>
<path d="M316.5,527.5 L320.0,541.3 L313.8,566.7 L294.6,566.3 L294.5,570.7 L276.6,562.2 L274.6,534.3 L299.3,534.2 L299.3,526.5 L316.5,527.5Z" fill="#9A6324"><title>Turner - Southwest Georgia</title></path>
<path d="M326.0,365.1 L349.5,413.6 L314.2,434.0 L305.3,401.8 L301.2,401.2 L313.6,380.1 L312.2,373.3 L326.0,365.1 L326.0,365.1Z" fill="#bfef45"><title>Twiggs - Macon Area</title></path>
<path d="M248.2,42.1 L257.1,42.1 L257.1,42.1 L259.9,51.4 L272.4,53.5 L277.4,72.1 L267.5,83.1 L256.8,80.2 L244.1,95.5 L228.3,94.5 L236.7,70.8 L234.9,57.6 L225.6,48.4 L232.0,42.1 L245.0,42.1 L246.1,42.1 L248.2,42.1Z" fill="#42d4f4"><title>Union - North Georgia Mountains</title></path>
<path d="M222.5,397.2 L211.6,388.3 L198.0,382.3 L182.9,367.6 L180.3,353.9 L185.1,350.3 L213.7,350.7 L233.0,350.9 L232.8,359.8 L232.7,372.6 L222.5,397.2Z" fill="#660033"><title>Upson - South Atlanta Piedmont</title></path>
<path d="M109.7,103.9 L104.7,103.9 L50.2,103.7 L49.2,98.3 L60.1,77.3 L60.1,66.1 L71.4,42.7 L78.6,42.5 L79.0,42.5 L79.5,42.5 L80.4,42.5 L82.6,42.4 L82.9,42.4 L84.3,42.4 L84.3,62.6 L92.4,62.6 L92.5,74.9 L99.9,76.0 L96.8,83.4 L112.1,83.4 L112.2,98.5 L111.6,98.5 L111.6,98.5 L110.9,98.5 L110.9,103.9 L109.7,103.9Z" fill="#42d4f4"><title>Walker - North Georgia Mountains</title></path>
<path d="M260.0,234.3 L254.9,230.6 L254.8,230.4 L251.2,227.8 L275.0,205.6 L279.6,210.7 L294.8,209.2 L313.2,222.9 L290.4,257.0 L277.8,247.5 L260.0,234.3Z" fill="#660033"><title>Walton - South Atlanta Piedmont</title></path>
<path d="M472.1,623.8 L482.0,632.1 L482.0,645.4 L492.0,656.9 L455.0,656.4 L454.4,690.2 L489.6,691.9 L481.2,725.5 L476.6,724.9 L475.5,724.7 L471.7,724.5 L460.3,723.6 L454.6,723.2 L452.4,686.3 L444.7,686.4 L445.3,664.2 L432.1,655.7 L421.7,630.1 L418.1,615.5 L427.2,616.0 L427.3,602.2 L427.4,586.0 L431.4,586.0 L444.7,586.1 L454.8,594.0 L459.2,613.5 L472.1,623.8Z" fill="#911eb4"><title>Ware - East Sandhills</title></path>
<path d="M459.2,301.1 L452.9,306.8 L436.3,298.7 L410.8,310.1 L398.3,280.7 L403.0,268.7 L411.4,270.4 L420.6,256.6 L421.9,255.9 L423.4,256.1 L423.7,257.0 L424.3,257.1 L423.8,255.5 L424.2,254.8 L424.6,255.2 L437.6,294.0 L459.2,301.1Z" fill="#000075"><title>Warren - West Sandhills &amp; Fall Line</title></path>
<path d="M423.0,329.8 L437.5,346.3 L442.7,362.0 L441.3,376.8 L409.1,385.0 L404.7,378.7 L385.9,386.5 L369.4,357.6 L372.2,336.8 L393.5,327.9 L397.9,318.9 L411.8,312.5 L423.0,329.8Z" fill="#000075"><title>Washington - West Sandhills &amp; Fall Line</title></path>
<path d="M513.2,536.5 L528.6,555.3 L553.0,575.2 L558.0,588.5 L549.2,596.6 L544.0,607.5 L535.0,602.3 L519.1,605.0 L503.8,600.7 L502.3,588.2 L491.8,585.7 L491.8,538.9 L502.8,530.6 L505.4,532.4 L507.2,531.5 L508.2,534.8 L511.5,537.2 L513.2,536.5Z" fill="#911eb4"><title>Wayne - East Sandhills</title></path>
<path d="M163.5,516.2 L164.4,467.9 L180.3,483.1 L192.8,483.2 L191.1,508.9 L189.9,516.4 L170.8,516.3 L163.5,516.2Z" fill="#9A6324"><title>Webster - Southwest Georgia</title></path>
<path d="M423.8,457.9 L429.4,478.9 L431.3,501.7 L438.4,510.3 L425.1,516.5 L414.2,502.8 L393.6,491.6 L388.4,483.0 L395.7,475.7 L394.0,473.6 L415.2,456.1 L423.8,457.9Z" fill="#000075"><title>Wheeler - West Sandhills &amp; Fall Line</title></path>
<path d="M267.5,83.1 L277.4,72.1 L282.3,70.9 L283.2,71.0 L284.4,71.4 L285.0,71.5 L285.2,71.6 L286.1,72.1 L286.4,72.5 L286.9,72.3 L287.4,72.4 L287.7,72.2 L288.4,72.0 L288.8,71.5 L289.8,70.9 L290.3,70.9 L297.9,81.5 L292.7,92.7 L298.9,109.2 L292.3,116.9 L269.3,116.6 L264.8,97.4 L267.5,83.1Z" fill="#42d4f4"><title>White - North Georgia Mountains</title></path>
<path d="M121.4,42.0 L121.7,42.0 L124.5,42.0 L126.0,42.0 L126.6,42.0 L136.8,42.0 L137.2,42.0 L140.6,42.0 L141.6,42.0 L142.1,42.0 L142.5,42.0 L143.4,42.0 L143.4,42.0 L142.3,59.1 L134.6,74.2 L136.3,85.4 L127.4,85.4 L130.0,96.7 L112.2,98.5 L112.1,83.4 L96.8,83.4 L99.9,76.0 L110.7,68.0 L121.4,42.0Z" fill="#42d4f4"><title>Whitfield - North Georgia Mountains</title></path>
<path d="M355.9,527.4 L316.5,527.5 L299.3,526.5 L299.7,499.6 L299.8,485.9 L299.8,485.6 L335.1,487.5 L341.0,506.3 L352.2,519.3 L355.9,527.4Z" fill="#9A6324"><title>Wilcox - Southwest Georgia</title></path>
<path d="M425.1,197.2 L431.9,221.4 L446.7,250.4 L424.6,255.2 L424.2,254.8 L423.8,255.5 L424.3,257.1 L423.7,257.0 L423.4,256.1 L421.9,255.9 L420.6,256.6 L403.3,247.9 L393.2,251.5 L385.6,235.9 L380.7,228.6 L395.3,206.8 L407.7,199.2 L425.1,197.2Z" fill="#e6beff"><title>Wilkes - Upper Savannah</title></path>
<path d="M332.5,360.7 L358.2,348.9 L369.4,357.6 L385.9,386.5 L386.0,389.3 L384.6,394.4 L384.5,394.4 L349.5,413.6 L326.0,365.1 L326.1,365.0 L332.5,360.7Z" fill="#bfef45"><title>Wilkinson - Macon Area</title></path>
<path d="M256.8,527.4 L274.6,534.3 L276.6,562.2 L294.5,570.7 L293.9,607.4 L248.9,606.7 L249.2,589.9 L249.2,587.0 L251.1,586.9 L246.5,558.0 L244.7,547.7 L256.8,527.4Z" fill="#9A6324"><title>Worth - Southwest Georgia</title></path>
</g>
<rect x="680" y="40" width="14" height="14" fill="#42d4f4" stroke="#fff" stroke-width="0.5"/><text x="702" y="52">North Georgia Mountains</text>
<rect x="680" y="62" width="14" height="14" fill="#e6194B" stroke="#fff" stroke-width="0.5"/><text x="702" y="74">Upper Piedmont Lakes</text>
<rect x="680" y="84" width="14" height="14" fill="#4363d8" stroke="#fff" stroke-width="0.5"/><text x="702" y="96">Cherokee County</text>
<rect x="680" y="106" width="14" height="14" fill="#3cb44b" stroke="#fff" stroke-width="0.5"/><text x="702" y="118">Gwinnett County</text>
<rect x="680" y="128" width="14" height="14" fill="#ffe119" stroke="#fff" stroke-width="0.5"/><text x="702" y="140">Cobb County</text>
<rect x="680" y="150" width="14" height="14" fill="#fabed4" stroke="#fff" stroke-width="0.5"/><text x="702" y="162">Athens Area</text>
<rect x="680" y="172" width="14" height="14" fill="#aaffc3" stroke="#fff" stroke-width="0.5"/><text x="702" y="184">Fulton County</text>
<rect x="680" y="194" width="14" height="14" fill="#fffac8" stroke="#fff" stroke-width="0.5"/><text x="702" y="206">DeKalb County</text>
<rect x="680" y="216" width="14" height="14" fill="#e6beff" stroke="#fff" stroke-width="0.5"/><text x="702" y="228">Upper Savannah</text>
<rect x="680" y="238" width="14" height="14" fill="#469990" stroke="#fff" stroke-width="0.5"/><text x="702" y="250">West Central Piedmont</text>
<rect x="680" y="260" width="14" height="14" fill="#f58231" stroke="#fff" stroke-width="0.5"/><text x="702" y="272">Augusta Area</text>
<rect x="680" y="282" width="14" height="14" fill="#660033" stroke="#fff" stroke-width="0.5"/><text x="702" y="294">South Atlanta Piedmont</text>
<rect x="680" y="304" width="14" height="14" fill="#bfef45" stroke="#fff" stroke-width="0.5"/><text x="702" y="316">Macon Area</text>
<rect x="680" y="326" width="14" height="14" fill="#000075" stroke="#fff" stroke-width="0.5"/><text x="702" y="338">West Sandhills &amp; Fall Line</text>
<rect x="680" y="348" width="14" height="14" fill="#f032e6" stroke="#fff" stroke-width="0.5"/><text x="702" y="360">Columbus-Fall Line</text>
<rect x="680" y="370" width="14" height="14" fill="#a9a9a9" stroke="#fff" stroke-width="0.5"/><text x="702" y="382">Chatham-Effingham Coast</text>
<rect x="680" y="392" width="14" height="14" fill="#911eb4" stroke="#fff" stroke-width="0.5"/><text x="702" y="404">East Sandhills</text>
<rect x="680" y="414" width="14" height="14" fill="#00ffff" stroke="#fff" stroke-width="0.5"/><text x="702" y="426">Mid-Coast Georgia</text>
<rect x="680" y="436" width="14" height="14" fill="#9A6324" stroke="#fff" stroke-width="0.5"/><text x="702" y="448">Southwest Georgia</text>
<rect x="680" y="458" width="14" height="14" fill="#00ff00" stroke="#fff" stroke-width="0.5"/><text x="702" y="470">Glynn County</text>
</g>
</svg>
